<svg width="24" height="24" viewBox="0 0 24 24" fill="none" xmlns="http://www.w3.org/2000/svg">
<path fill-rule="evenodd" clip-rule="evenodd" d="M7.61528 4.05755L9.36963 8.15103L7.88452 10.4202C7.71913 10.671 7.62135 10.9603 7.60068 11.26C7.57994 11.5609 7.63759 11.862 7.76799 12.1339L8.66965 11.7014L7.77136 12.1408C8.64771 13.9324 10.1 15.3781 11.8956 16.2463L11.8956 16.2463L11.9027 16.2497C12.1762 16.3793 12.4788 16.4355 12.7807 16.4126C13.0815 16.3899 13.3712 16.2895 13.6215 16.1212C13.6224 16.1206 13.6233 16.12 13.6242 16.1194L15.854 14.6325L19.9424 16.3847C19.8003 17.1547 19.4036 17.8569 18.8131 18.3768C18.1739 18.9395 17.3516 19.2499 16.5 19.25M9.63567 11.3967C10.2979 12.679 11.3453 13.7217 12.6304 14.3782L14.8571 12.8934C15.0994 12.7319 15.378 12.6334 15.6679 12.6067C15.9578 12.5801 16.2498 12.6262 16.5174 12.7409L20.9054 14.6215C20.9059 14.6217 20.9064 14.6219 20.9069 14.6221C21.2549 14.7703 21.5455 15.0275 21.7349 15.355C21.9246 15.683 22.0026 16.0637 21.957 16.4398L21.9562 16.4465L21.9562 16.4465C21.7866 17.7737 21.139 18.9937 20.1347 19.8779C19.1303 20.7621 17.8381 21.2499 16.5001 21.25H16.5C12.8533 21.25 9.35591 19.8013 6.77728 17.2227C4.19866 14.6441 2.75 11.1467 2.75 7.49997V7.49992C2.75007 6.16183 3.23787 4.86965 4.12207 3.86531C5.00626 2.86098 6.22622 2.21338 7.55352 2.04376L7.56014 2.04291L7.56014 2.04293C7.93626 1.99742 8.31699 2.07537 8.64495 2.26504C8.97236 2.45439 9.22949 2.74484 9.37774 3.09276C9.37799 3.09336 9.37824 3.09395 9.37849 3.09454L11.2607 7.4864C11.3744 7.75165 11.4207 8.04088 11.3956 8.32836C11.3704 8.61584 11.2745 8.89263 11.1165 9.13409L9.63567 11.3967ZM7.61528 4.05755C6.8453 4.19967 6.14307 4.59641 5.62321 5.1869C5.06049 5.82607 4.75004 6.64844 4.75 7.50002C4.75 10.6163 5.98794 13.6049 8.1915 15.8085C10.395 18.012 13.3837 19.25 16.4999 19.25" fill="#CC122D"/>
</svg>
