<svg width="100" height="100" viewBox="0 0 100 100" fill="none" xmlns="http://www.w3.org/2000/svg">
<g clip-path="url(#clip0_10771_58676)">
<path d="M12.2583 35.3728C5.32976 42.0494 0.0198617 51.4156 0.00012236 57.0048C-0.019617 61.3732 2.34911 64.3109 6.98787 65.7416C10.7581 66.9052 13.6795 66.9624 17.9037 65.9514C21.3187 65.1502 22.8583 64.5779 42.8346 56.6615C52.8819 52.6746 69.8578 45.9599 80.5763 41.7251C91.2948 37.4902 100.039 33.9994 99.9999 33.9612C99.8617 33.8277 56.2179 44.3194 41.9463 47.9247C33.4781 50.0612 25.76 51.9497 24.7731 52.1405C22.6017 52.522 19.2263 52.5602 17.7656 52.2359C13.0281 51.1295 10.3238 47.0854 11.0542 42.2401C11.4292 39.703 12.2978 37.3186 13.7782 34.7052C14.2125 33.9612 14.5283 33.3317 14.4888 33.3317C14.4296 33.3317 13.4426 34.2473 12.2583 35.3728Z" fill="#CC122D"/>
</g>
<defs>
<clipPath id="clip0_10771_58676">
<rect width="100" height="100" fill="white"/>
</clipPath>
</defs>
</svg>
