<svg width="100" height="100" viewBox="0 0 100 100" fill="none" xmlns="http://www.w3.org/2000/svg">
<path d="M100 0H0V100H100V0Z" fill="#0D1116"/>
<path d="M50 87.5C70.7107 87.5 87.5 70.7107 87.5 50C87.5 29.2893 70.7107 12.5 50 12.5C29.2893 12.5 12.5 29.2893 12.5 50C12.5 70.7107 29.2893 87.5 50 87.5Z" stroke="#CC122D" stroke-width="6" stroke-linecap="round" stroke-linejoin="round"/>
<path d="M50 75C52.5888 75 54.6875 72.9013 54.6875 70.3125C54.6875 67.7237 52.5888 65.625 50 65.625C47.4112 65.625 45.3125 67.7237 45.3125 70.3125C45.3125 72.9013 47.4112 75 50 75Z" fill="#CC122D"/>
<path d="M50 56.252V53.127C52.1632 53.127 54.2779 52.4855 56.0766 51.2837C57.8752 50.0818 59.2771 48.3736 60.1049 46.3751C60.9328 44.3765 61.1494 42.1773 60.7273 40.0557C60.3053 37.934 59.2636 35.9851 57.734 34.4555C56.2043 32.9258 54.2555 31.8841 52.1338 31.4621C50.0121 31.0401 47.813 31.2567 45.8144 32.0845C43.8158 32.9124 42.1076 34.3142 40.9058 36.1129C39.704 37.9116 39.0625 40.0262 39.0625 42.1895" stroke="#CC122D" stroke-width="6" stroke-linecap="round" stroke-linejoin="round"/>
</svg>
