<svg width="100" height="100" viewBox="0 0 100 100" fill="none" xmlns="http://www.w3.org/2000/svg">
<path d="M64.5161 58.3989C60.9879 63.1837 55.2419 65.627 50 65.627C41.0282 65.627 32.0565 60.2314 32.0565 49.6439C32.0565 41.805 38.8105 34.3733 50 34.3733C53.629 34.3733 57.0564 35.4932 58.9718 36.4094L62.0968 34.577V41.6014L59.6774 43.0266C57.5605 39.9725 53.9315 37.9365 50 37.9365C43.4476 37.9365 38.1048 43.332 38.1048 49.9493C38.1048 56.5665 43.4476 61.9621 50 61.9621C54.3347 61.9621 58.4677 60.1296 61.2903 56.5665L64.5161 58.3989ZM100 49.9493L50 79.1668L0 49.9493L50 20.8335L100 49.9493ZM50 74.9929L92.8427 50.0511L78.5282 41.6014L57.1573 54.1232V56.6683C55.2419 58.8062 52.4194 59.926 49.5968 59.8242L51.1089 58.7043L48.3871 55.7521L44.4556 56.5665L45.0605 58.6025C41.9355 56.8719 40.121 53.5124 40.121 49.9493L41.5323 51.4763L44.254 48.524L43.0444 44.6555L41.3306 45.4699C42.6411 42.9248 44.9597 41.0924 47.7823 40.4815L49.8992 41.7032L52.0161 40.4815C55.0403 41.1942 57.5605 43.332 58.7702 46.1825L64.1129 43.0266V33.4571L49.7984 25.1092L7.15726 49.9493L21.4718 58.2971L30.2419 53.207C31.1492 57.9917 33.9718 62.1657 38.7097 64.9144L35.7863 66.645L50 74.9929ZM51.2097 45.0627L48.2863 48.4222L50.504 52.2907L54.8387 51.3745L55.3427 46.997L51.2097 45.0627Z" fill="#CC122D"/>
</svg>
