<svg width="100" height="100" viewBox="0 0 100 100" fill="none" xmlns="http://www.w3.org/2000/svg">
<path d="M12.4961 40.625H31.2461V81.25H12.4961C11.6673 81.25 10.8724 80.9208 10.2864 80.3347C9.70033 79.7487 9.37109 78.9538 9.37109 78.125V43.75C9.37109 42.9212 9.70033 42.1263 10.2864 41.5403C10.8724 40.9542 11.6673 40.625 12.4961 40.625V40.625Z" stroke="#CC122D" stroke-width="6" stroke-linecap="round" stroke-linejoin="round"/>
<path d="M31.2461 40.625L46.8711 9.375C48.5126 9.375 50.1381 9.69832 51.6546 10.3265C53.1712 10.9547 54.5492 11.8754 55.7099 13.0362C56.8707 14.1969 57.7914 15.5749 58.4196 17.0915C59.0478 18.608 59.3711 20.2335 59.3711 21.875V31.25H83.5412C84.4274 31.25 85.3035 31.4385 86.1113 31.8029C86.9191 32.1673 87.6402 32.6994 88.2267 33.3637C88.8132 34.0281 89.2517 34.8096 89.5131 35.6564C89.7745 36.5032 89.8529 37.3959 89.7429 38.2752L85.0554 75.7752C84.8665 77.2868 84.132 78.6773 82.99 79.6855C81.848 80.6936 80.3771 81.25 78.8537 81.25H31.2461" stroke="#CC122D" stroke-width="6" stroke-linecap="round" stroke-linejoin="round"/>
</svg>
