<svg width="100" height="100" viewBox="0 0 100 100" fill="none" xmlns="http://www.w3.org/2000/svg">
<path d="M93.75 46.875H68.75V31.25H85.3843C86.0088 31.25 86.6191 31.4371 87.1362 31.7873C87.6534 32.1374 88.0538 32.6345 88.2858 33.2144L93.75 46.875Z" stroke="#CC122D" stroke-width="6" stroke-linecap="round" stroke-linejoin="round"/>
<path d="M6.25 56.25H68.75" stroke="#CC122D" stroke-width="6" stroke-linecap="round" stroke-linejoin="round"/>
<path d="M73.4375 84.375C78.6152 84.375 82.8125 80.1777 82.8125 75C82.8125 69.8223 78.6152 65.625 73.4375 65.625C68.2598 65.625 64.0625 69.8223 64.0625 75C64.0625 80.1777 68.2598 84.375 73.4375 84.375Z" stroke="#CC122D" stroke-width="6" stroke-miterlimit="10"/>
<path d="M26.5625 84.375C31.7402 84.375 35.9375 80.1777 35.9375 75C35.9375 69.8223 31.7402 65.625 26.5625 65.625C21.3848 65.625 17.1875 69.8223 17.1875 75C17.1875 80.1777 21.3848 84.375 26.5625 84.375Z" stroke="#CC122D" stroke-width="6" stroke-miterlimit="10"/>
<path d="M64.0625 75H35.9375" stroke="#CC122D" stroke-width="6" stroke-linecap="round" stroke-linejoin="round"/>
<path d="M17.1875 75H9.375C8.5462 75 7.75134 74.6708 7.16529 74.0847C6.57924 73.4987 6.25 72.7038 6.25 71.875V28.125C6.25 27.2962 6.57924 26.5013 7.16529 25.9153C7.75134 25.3292 8.5462 25 9.375 25H68.75V66.8809" stroke="#CC122D" stroke-width="6" stroke-linecap="round" stroke-linejoin="round"/>
<path d="M68.75 66.8809V46.875H93.75V71.875C93.75 72.7038 93.4208 73.4987 92.8347 74.0847C92.2487 74.6708 91.4538 75 90.625 75H82.8125" stroke="#CC122D" stroke-width="6" stroke-linecap="round" stroke-linejoin="round"/>
</svg>
