<svg width="100" height="100" viewBox="0 0 100 100" fill="none" xmlns="http://www.w3.org/2000/svg">
<path d="M100 0H0V100H100V0Z" fill="#0D1116"/>
<path d="M75 46.875H85.5686C86.149 46.875 86.7179 46.7134 87.2116 46.4083C87.7052 46.1032 88.1042 45.6666 88.3637 45.1475L95.5529 30.7691C95.9102 30.0546 95.9803 29.2305 95.7488 28.466C95.5173 27.7015 95.0018 27.0546 94.3083 26.6583L75 15.625" stroke="#CC122D" stroke-width="6" stroke-linecap="round" stroke-linejoin="round"/>
<path d="M25.0001 46.875H14.4314C13.8511 46.875 13.2822 46.7134 12.7885 46.4083C12.2948 46.1032 11.8959 45.6666 11.6363 45.1475L4.44711 30.7691C4.08987 30.0546 4.0198 29.2305 4.25128 28.466C4.48276 27.7015 4.99821 27.0546 5.69176 26.6583L25.0001 15.625" stroke="#CC122D" stroke-width="6" stroke-linecap="round" stroke-linejoin="round"/>
<path d="M62.5 15.625C62.5 18.9402 61.183 22.1196 58.8388 24.4638C56.4946 26.808 53.3152 28.125 50 28.125C46.6848 28.125 43.5054 26.808 41.1612 24.4638C38.817 22.1196 37.5 18.9402 37.5 15.625H25V81.25C25 82.0788 25.3292 82.8737 25.9153 83.4597C26.5013 84.0458 27.2962 84.375 28.125 84.375H71.875C72.7038 84.375 73.4987 84.0458 74.0847 83.4597C74.6708 82.8737 75 82.0788 75 81.25V15.625H62.5Z" stroke="#CC122D" stroke-width="6" stroke-linecap="round" stroke-linejoin="round"/>
</svg>
