<svg width="81" height="80" viewBox="0 0 81 80" fill="none" xmlns="http://www.w3.org/2000/svg">
<path fill-rule="evenodd" clip-rule="evenodd" d="M74.5665 14.3516C75.8443 15.6768 75.806 17.787 74.4808 19.0649L43.3695 49.0649C42.0782 50.31 40.0332 50.31 38.7419 49.0648L23.1865 34.0648C21.8613 32.787 21.823 30.6768 23.1009 29.3516C24.3787 28.0264 26.4889 27.988 27.8141 29.2659L41.0557 42.0347L69.8532 14.2659C71.1784 12.988 73.2886 13.0264 74.5665 14.3516Z" fill="#C8122D"/>
<path fill-rule="evenodd" clip-rule="evenodd" d="M40.6005 10.6654C24.3556 10.6654 11.1865 23.7983 11.1865 39.9987C11.1865 56.199 24.3556 69.332 40.6005 69.332C55.7382 69.332 68.2094 57.9251 69.8348 43.2625C70.0579 41.2497 71.8749 39.7984 73.8932 40.0209C75.9116 40.2434 77.3669 42.0555 77.1438 44.0682C75.1111 62.4053 59.5282 76.6654 40.6005 76.6654C20.2944 76.6654 3.83301 60.2491 3.83301 39.9987C3.83301 19.7483 20.2944 3.33203 40.6005 3.33203C44.1383 3.33203 47.5654 3.83139 50.8117 4.76558C52.7627 5.32703 53.888 7.35943 53.325 9.30509C52.762 11.2508 50.724 12.3729 48.773 11.8114C46.1826 11.066 43.4416 10.6654 40.6005 10.6654Z" fill="white"/>
</svg>
