<svg width="81" height="80" viewBox="0 0 81 80" fill="none" xmlns="http://www.w3.org/2000/svg">
<path d="M50.5 20H30.5L40.5 27.3333L50.5 20Z" stroke="#C8122D" stroke-width="7" stroke-linecap="round" stroke-linejoin="round"/>
<path d="M40.5 40L21.5 25.75C21.1895 25.5171 20.9375 25.2152 20.7639 24.868C20.5904 24.5209 20.5 24.1381 20.5 23.75V12.5C20.5 11.837 20.7634 11.2011 21.2322 10.7322C21.7011 10.2634 22.337 10 23 10H58C58.663 10 59.2989 10.2634 59.7678 10.7322C60.2366 11.2011 60.5 11.837 60.5 12.5V23.6379C60.5 24.0244 60.4104 24.4057 60.2382 24.7517C60.066 25.0977 59.8159 25.3991 59.5075 25.6322L40.5 40Z" stroke="white" stroke-width="7" stroke-linecap="round" stroke-linejoin="round"/>
<path d="M40.5 40L21.5 54.25C21.1895 54.4829 20.9375 54.7848 20.7639 55.132C20.5904 55.4791 20.5 55.8619 20.5 56.25V67.5C20.5 68.163 20.7634 68.7989 21.2322 69.2678C21.7011 69.7366 22.337 70 23 70H58C58.663 70 59.2989 69.7366 59.7678 69.2678C60.2366 68.7989 60.5 68.163 60.5 67.5V56.3621C60.5 55.9756 60.4104 55.5943 60.2382 55.2483C60.066 54.9023 59.8159 54.6009 59.5075 54.3678L40.5 40Z" stroke="white" stroke-width="7" stroke-linecap="round" stroke-linejoin="round"/>
</svg>
