<svg width="218" height="61" viewBox="0 0 218 61" fill="none" xmlns="http://www.w3.org/2000/svg">
<path d="M41.6036 3.38035L38.3272 2.99622L36.9556 0L35.6603 2.99622L32.3838 3.38035L34.8221 5.53149L34.1363 8.75819L36.9556 7.14484L39.8511 8.75819L39.1653 5.53149L41.6036 3.38035Z" fill="#C5B783"/>
<path d="M66.3678 3.38035L63.1675 2.99622L61.7959 0L60.5006 2.99622L57.2241 3.38035L59.6624 5.53149L58.9767 8.75819L61.7959 7.14484L64.6914 8.75819L64.0057 5.53149L66.3678 3.38035Z" fill="#C5B783"/>
<path d="M53.9474 3.38035L50.7471 2.99622L49.3755 0L48.0802 2.99622L44.8037 3.38035L47.242 5.53149L46.5562 8.75819L49.3755 7.14484L52.271 8.75819L51.5853 5.53149L53.9474 3.38035Z" fill="#C5B783"/>
<path d="M29.1837 3.38035L25.9072 2.99622L24.5357 0L23.2403 2.99622L19.9639 3.38035L22.4022 5.53149L21.7164 8.75819L24.5357 7.14484L27.4312 8.75819L26.7454 5.53149L29.1837 3.38035Z" fill="#C5B783"/>
<path d="M43.2038 10.7559L86.4075 35.878L43.2038 61.0002L0 35.878L43.2038 10.7559Z" fill="#CC122D"/>
<path d="M54.1763 42.2541C51.5094 45.865 47.1662 47.7088 43.2039 47.7088C36.4224 47.7088 29.6408 43.637 29.6408 35.6471C29.6408 29.7315 34.7461 24.1232 43.2039 24.1232C45.947 24.1232 48.5377 24.9682 49.9855 25.6597L52.3476 24.2768V29.5778L50.5189 30.6534C48.9187 28.3486 46.1756 26.8121 43.2039 26.8121C38.2511 26.8121 34.2127 30.8839 34.2127 35.8776C34.2127 40.8713 38.2511 44.9431 43.2039 44.9431C46.4804 44.9431 49.6045 43.5602 51.738 40.8713L54.1763 42.2541ZM80.9977 35.8776L43.2039 57.9267L5.41016 35.8776L43.2039 13.9053L80.9977 35.8776ZM43.2039 54.7768L75.5877 35.9544L64.7677 29.5778L48.6139 39.0274V40.9481C47.1662 42.5614 45.0327 43.4065 42.8991 43.3297L44.0421 42.4846L41.9848 40.2567L39.0131 40.8713L39.4703 42.4078C37.1082 41.1017 35.7366 38.5665 35.7366 35.8776L36.8034 37.03L38.8607 34.802L37.9463 31.8826L36.651 32.4972C37.6415 30.5766 39.3941 29.1937 41.5276 28.7327L43.1277 29.6546L44.7279 28.7327C47.0138 29.2705 48.9187 30.8839 49.8331 33.035L53.8715 30.6534V23.4317L43.0515 17.132L10.8202 35.8776L21.6401 42.1773L28.2693 38.336C28.9551 41.9468 31.0886 45.0967 34.6699 47.171L32.4601 48.4771L43.2039 54.7768ZM44.1183 32.1899L41.9086 34.7252L43.5849 37.6446L46.8614 36.9531L47.2424 33.6496L44.1183 32.1899Z" fill="white"/>
<path d="M104.085 20.7433C102.637 20.7433 101.952 20.0519 101.952 19.13C101.952 18.2081 102.637 17.5166 104.085 17.5166H104.923L104.39 16.5947H106.143V17.5166H106.981C108.428 17.5166 109.114 18.2081 109.114 19.13C109.114 20.0519 108.428 20.7433 106.981 20.7433H106.143V21.5116H104.847V20.7433H104.085ZM104.923 19.9751V18.3617H104.238C103.628 18.3617 103.247 18.7459 103.247 19.2068C103.247 19.6678 103.628 20.0519 104.238 20.0519H104.923V19.9751ZM106.828 19.9751C107.438 19.9751 107.819 19.5909 107.819 19.13C107.819 18.669 107.438 18.2849 106.828 18.2849H106.143V19.9751H106.828Z" fill="#0D1116"/>
<path d="M109.343 16.6709H110.867L112.314 19.1293L113.686 16.6709H114.677L112.01 21.5109H110.943L111.552 20.3586L109.343 16.6709Z" fill="#0D1116"/>
<path d="M119.934 16.6709V17.5928H118.182V21.5109H116.962V17.5928H115.21V16.6709H119.934Z" fill="#0D1116"/>
<path d="M123.668 21.5109H121.153V17.5928L120.62 16.6709H125.268V17.5928H122.449V18.4379H123.744C125.116 18.4379 125.802 19.1293 125.802 19.9744C125.725 20.8195 125.04 21.5109 123.668 21.5109ZM123.516 20.7427C124.125 20.7427 124.506 20.4354 124.506 19.9744C124.506 19.5903 124.201 19.2062 123.516 19.2062H122.373V20.7427H123.516Z" fill="#0D1116"/>
<path d="M132.354 19.13C132.354 20.5129 131.211 21.6653 129.535 21.6653C127.859 21.6653 126.716 20.5129 126.716 19.13C126.716 17.7471 127.859 16.5947 129.535 16.5947C131.135 16.5947 132.354 17.7471 132.354 19.13ZM131.059 19.13C131.059 18.2081 130.373 17.5166 129.459 17.5166C128.545 17.5166 127.859 18.2081 127.859 19.13C127.859 20.0519 128.545 20.7433 129.459 20.7433C130.373 20.7433 131.059 20.0519 131.059 19.13Z" fill="#0D1116"/>
<path d="M133.802 21.5109H132.812L134.564 17.516L134.107 16.6709H136.317L138.374 21.5109H137.002L135.402 17.8233L133.802 21.5109Z" fill="#0D1116"/>
<path d="M141.803 18.2842C143.25 18.2842 143.936 18.9757 143.936 19.8976C143.936 20.8195 143.25 21.5109 141.803 21.5109H139.364V17.5928L138.831 16.6709H140.584V18.2842H141.803ZM140.66 19.0525V20.7427H141.727C142.336 20.7427 142.717 20.3586 142.717 19.8976C142.717 19.4366 142.336 19.0525 141.727 19.0525H140.66Z" fill="#0D1116"/>
<path d="M149.956 21.5109H148.737V19.4366H146.375V21.5109H145.155V17.5928L144.622 16.6709H146.375V18.5916H148.737V16.6709H149.956V21.5109Z" fill="#0D1116"/>
<path d="M153.918 18.2842C155.366 18.2842 156.052 18.9757 156.052 19.8976C156.052 20.8195 155.366 21.5109 153.918 21.5109H151.709V17.5928L151.175 16.6709H152.928V18.2842H153.918ZM152.928 19.0525V20.7427H153.766C154.376 20.7427 154.757 20.3586 154.757 19.8976C154.757 19.4366 154.376 19.0525 153.766 19.0525H152.928ZM158.033 21.5109H156.738V17.5928L156.204 16.6709H157.957V21.5109H158.033Z" fill="#0D1116"/>
<path d="M164.662 21.5117H163.367V18.0545L161.081 21.5117H159.709V17.5935L159.176 16.6716H160.928V20.1288L163.214 16.6716H164.586V21.5117H164.662ZM161.995 16.2107C161.309 16.2107 160.852 15.8265 160.852 15.2119H161.766C161.766 15.5192 161.919 15.6729 162.147 15.6729H162.3C162.528 15.6729 162.681 15.5192 162.681 15.2119H163.595C163.595 15.8265 163.214 16.2107 162.452 16.2107H161.995Z" fill="#0D1116"/>
<path d="M169.843 18.5916H170.301L171.977 16.6709H173.196L171.291 18.822L173.348 21.5109H171.825L170.301 19.4366H169.843V21.5109H168.548V17.5928L168.015 16.6709H169.843V18.5916Z" fill="#0D1116"/>
<path d="M175.025 21.5109H173.958L175.787 17.516L175.33 16.6709H177.463L179.597 21.5109H178.225L176.625 17.8233L175.025 21.5109Z" fill="#0D1116"/>
<path d="M179.368 16.6709H180.892L182.34 19.1293L183.711 16.6709H184.778L182.035 21.5109H180.968L181.654 20.3586L179.368 16.6709Z" fill="#0D1116"/>
<path d="M188.512 21.5109H185.921V17.5928L185.388 16.6709H190.036V17.5928H187.216V18.4379H188.512C189.883 18.4379 190.569 19.1293 190.569 19.9744C190.569 20.8195 189.883 21.5109 188.512 21.5109ZM188.359 20.7427C188.969 20.7427 189.35 20.4354 189.35 19.9744C189.35 19.5903 189.045 19.2062 188.359 19.2062H187.216V20.7427H188.359Z" fill="#0D1116"/>
<path d="M110.943 50.2441V57.4658H109.038V52.7794L106.371 57.4658L103.704 52.7794V57.4658H102.409V51.627L101.647 50.2441H104.619L106.752 54.1623L108.962 50.2441H110.943Z" fill="#CC122D"/>
<path d="M121.382 53.8553C121.382 55.9296 119.63 57.6198 117.115 57.6198C114.601 57.6198 112.848 55.8528 112.848 53.8553C112.848 51.781 114.601 50.0908 117.115 50.0908C119.63 50.0908 121.382 51.8578 121.382 53.8553ZM119.401 53.8553C119.401 52.4724 118.411 51.3969 117.039 51.3969C115.744 51.3969 114.677 52.4724 114.677 53.8553C114.677 55.2382 115.667 56.3137 117.039 56.3137C118.411 56.3137 119.401 55.2382 119.401 53.8553Z" fill="#CC122D"/>
<path d="M124.582 53.8556C124.582 55.2385 125.649 56.3141 126.944 56.3141C128.621 56.3141 129.459 54.9312 129.459 54.9312L130.602 55.6226C130.602 55.6226 129.459 57.6201 126.868 57.6201C124.354 57.6201 122.601 55.8531 122.601 53.8556C122.601 51.7813 124.354 50.0912 126.868 50.0912C128.087 50.0912 128.925 50.4753 128.925 50.4753L129.916 49.9375V52.1655L129.078 52.7032C129.078 52.7032 128.392 51.474 126.944 51.474C125.649 51.3972 124.582 52.4728 124.582 53.8556Z" fill="#CC122D"/>
<path d="M134.107 53.0867H134.869L137.383 50.2441H139.212L136.317 53.4708L139.441 57.4658H137.079L134.869 54.3928H134.107V57.4658H132.202V51.627L131.44 50.2441H134.107V53.0867Z" fill="#CC122D"/>
<path d="M146.375 53.548C146.375 53.548 147.975 53.9321 147.975 55.3918C147.975 56.4674 146.984 57.4661 145.003 57.4661H141.117V51.6273L140.355 50.3213H144.698C146.603 50.3213 147.518 51.1664 147.518 52.1651C147.441 53.087 146.375 53.548 146.375 53.548ZM142.946 51.4737V53.087H144.47C145.232 53.087 145.613 52.7029 145.613 52.2419C145.613 51.781 145.232 51.3969 144.47 51.3969H142.946V51.4737ZM142.946 54.2394V56.3137H144.698C145.536 56.3137 145.994 55.8528 145.994 55.315C145.994 54.7772 145.536 54.3163 144.698 54.3163H142.946V54.2394Z" fill="#CC122D"/>
<path d="M148.661 57.4661L151.328 51.4737L150.642 50.3213H153.918L157.042 57.543H154.985L154.452 56.2369H150.794L150.261 57.543H148.661V57.4661ZM151.328 54.854H153.842L152.547 51.9346L151.328 54.854Z" fill="#CC122D"/>
<path d="M104.39 35.8779C104.39 38.6437 106.523 40.7948 109.19 40.7948C112.543 40.7948 114.219 38.1059 114.219 38.1059L116.581 39.4888C116.581 39.4888 114.219 43.4837 109.114 43.4837C104.009 43.4837 100.58 40.0266 100.58 35.8779C100.58 31.7293 104.009 28.2721 109.114 28.2721C111.552 28.2721 113.305 29.1172 113.305 29.1172L115.21 27.9648V32.4208L113.457 33.4195C113.457 33.4195 112.01 30.9611 109.19 30.9611C106.523 30.9611 104.39 33.1122 104.39 35.8779Z" fill="#CC122D"/>
<path d="M133.573 43.0999H129.84V31.3455H123.515V43.0999H119.706V31.3455L118.182 28.7334H133.573V43.0999Z" fill="#CC122D"/>
<path d="M136.164 43.0999L141.498 31.115L140.203 28.7334H146.755L153.08 43.0999H148.889L147.746 40.5646H140.431L139.288 43.0999H136.164ZM141.498 37.8757H146.603L144.089 32.0369L141.498 37.8757Z" fill="#CC122D"/>
<path d="M162.148 28.7331C166.567 28.7331 168.777 30.961 168.777 33.8036C168.777 36.5694 166.567 38.8741 162.148 38.8741H159.405V43.1764H155.671V31.3452L154.147 28.6562H162.148V28.7331ZM159.405 36.4157H161.767C163.824 36.4157 165.043 35.1865 165.043 33.7268C165.043 32.2671 163.824 31.0379 161.767 31.0379H159.405V36.4157Z" fill="#CC122D"/>
<path d="M184.321 28.7334V31.3455H179.139V43.0999H175.33V31.3455H171.215L169.615 28.7334H184.321Z" fill="#CC122D"/>
<path d="M184.168 43.0999L189.502 31.115L188.207 28.7334H194.76L201.084 43.0999H196.893L195.75 40.5646H188.436L187.293 43.0999H184.168ZM189.502 37.8757H194.607L192.093 32.0369L189.502 37.8757Z" fill="#CC122D"/>
<path d="M207.409 34.2649H208.932L213.885 28.7334H217.619L211.752 35.0331L218 43.0999H213.428L208.856 36.9538H207.409V43.0999H203.599V31.3455L202.075 28.7334H207.409V34.2649Z" fill="#CC122D"/>
</svg>