<svg width="64" height="64" viewBox="0 0 64 64" fill="none" xmlns="http://www.w3.org/2000/svg">
<path fill-rule="evenodd" clip-rule="evenodd" d="M3.77247 25.8623C3.89247 31.6863 6.76047 35.1855 11.7901 35.1855H12.0749V31.8543C13.9245 32.0407 15.3213 33.4223 15.8821 35.1855H18.4925C18.2256 34.1815 17.7505 33.245 17.0981 32.4367C16.4492 31.6326 15.6365 30.9759 14.7141 30.5103C15.8901 29.8183 17.5461 28.1383 17.9405 25.8623H15.5685C15.0541 27.7103 13.5269 29.3903 12.0749 29.5503V25.8623H9.70207V32.3207C8.23007 31.9463 6.37407 30.1367 6.29087 25.8623H3.77247ZM1.59247 20.6167C0.046875 22.1839 0.046875 24.7247 0.046875 29.7999V30.6959C0.046875 35.7647 0.0468751 38.2983 1.59087 39.8799C3.13647 41.4615 5.63887 41.4479 10.6389 41.4479H11.5221C16.5165 41.4479 19.0125 41.4479 20.5701 39.8799C22.1285 38.3119 22.1157 35.7719 22.1157 30.6959V29.7999C22.1157 24.7303 22.1157 22.1975 20.5709 20.6159C19.0269 19.0351 16.5237 19.0479 11.5237 19.0479H10.6405C5.64607 19.0479 3.15007 19.0479 1.59247 20.6159V20.6167Z" fill="white"/>
<path d="M35.9772 34.0121C34.09 34.0121 32.7852 32.6497 32.7852 30.7145C32.7852 28.7793 34.09 27.4153 35.9772 27.4153C37.8636 27.4153 39.1308 28.7793 39.1308 30.7145C39.1308 32.6505 37.8468 34.0121 35.9772 34.0121ZM32.7852 39.8961V34.2801C33.2413 34.832 33.8135 35.2765 34.4612 35.5817C35.1068 35.8857 35.8108 36.0417 36.522 36.0393C39.422 36.0393 41.466 33.7993 41.466 30.7081C41.466 27.6169 39.422 25.3745 36.522 25.3745C35.7876 25.3745 35.062 25.5409 34.398 25.8625C33.7332 26.1852 33.1492 26.653 32.6892 27.2313L32.2236 25.5713H30.5508V39.8897L32.786 39.8961H32.7852ZM46.8772 34.1305C45.7876 34.1305 45.0876 33.5569 45.0876 32.6697C45.0876 31.8793 45.6508 31.3257 47.3628 31.3257H49.4812C49.4812 33.0041 48.4332 34.1305 46.8772 34.1305ZM47.5396 25.3809C45.5732 25.3809 43.8404 26.4097 43.346 28.1857L45.41 28.5417C45.6004 28.1657 45.8908 27.8513 46.2484 27.6345C46.6052 27.4185 47.0161 27.3083 47.4332 27.3169C48.658 27.3169 49.3772 28.2129 49.4748 29.5569H47.2964C44.3196 29.5569 42.8404 30.8785 42.8404 32.7753C42.8404 34.6729 44.2996 36.0521 46.3724 36.0521C47.0235 36.0626 47.6657 35.9005 48.234 35.5825C48.8056 35.2622 49.2835 34.7981 49.6204 34.2361L50.0884 35.8553H51.7412V30.0833C51.7212 27.0993 50.1252 25.3809 47.5396 25.3809ZM58.3796 32.9865H58.0676L55.0916 25.5785H52.6988L57.2052 36.4025L57.0884 36.7177C56.7948 37.5465 56.446 37.8249 55.7068 37.8249H53.818L54.014 39.8969H55.5588C57.4284 39.8969 58.4276 39.0473 59.1212 37.1321L63.2652 25.5785H60.9876L58.3796 32.9865Z" fill="white"/>
</svg>
