<svg width="64" height="64" viewBox="0 0 64 64" fill="none" xmlns="http://www.w3.org/2000/svg">
<path d="M10 16V48C10 49.0609 10.4214 50.0783 11.1716 50.8284C11.9217 51.5786 12.9391 52 14 52H54C54.5304 52 55.0391 51.7893 55.4142 51.4142C55.7893 51.0391 56 50.5304 56 50V22C56 21.4696 55.7893 20.9609 55.4142 20.5858C55.0391 20.2107 54.5304 20 54 20H14C12.9391 20 11.9217 19.5786 11.1716 18.8284C10.4214 18.0783 10 17.0609 10 16ZM10 16C10 14.9391 10.4214 13.9217 11.1716 13.1716C11.9217 12.4214 12.9391 12 14 12H48" stroke="white" stroke-width="2" stroke-linecap="round" stroke-linejoin="round"/>
<path d="M47.9375 36C47.9375 37.6223 46.6223 38.9375 45 38.9375C43.3777 38.9375 42.0625 37.6223 42.0625 36C42.0625 34.3777 43.3777 33.0625 45 33.0625C46.6223 33.0625 47.9375 34.3777 47.9375 36Z" fill="white" stroke="white" stroke-width="0.125"/>
</svg>
