<svg viewBox="0 0 98 24" fill="none" xmlns="http://www.w3.org/2000/svg" class="iconWinline__Svg-sc-ee359098-0 iOoERw"><path d="M86.074 24H11.9332C5.37284 24 0 18.5971 0 12C0 5.40291 5.37284 0 11.9332 0H86.0668C92.6272 0 98 5.40291 98 12C98.0072 18.5971 92.6344 24 86.074 24Z" fill="white"></path><path d="M73.6555 11.9999C73.6555 8.24261 75.263 4.92222 77.877 2.62854C78.0291 2.49747 77.9205 2.31543 77.8119 2.31543H11.9331C6.6109 2.31543 2.30249 6.65523 2.30249 11.9999C2.30249 17.3518 6.61814 21.6844 11.9331 21.6844H77.7684C77.877 21.6844 78.0363 21.5169 77.8336 21.3421C75.2703 19.0484 73.6555 15.7135 73.6555 11.9999Z" fill="#2C2C2C"></path><path d="M48.9128 7.5141C48.9128 7.8709 48.6231 8.16216 48.2611 8.16216H47.2618C46.8997 8.16216 46.6101 7.8709 46.6101 7.5141V6.73497C46.6101 6.37818 46.8997 6.08691 47.2618 6.08691H48.2611C48.6231 6.08691 48.9128 6.37818 48.9128 6.73497V7.5141Z" fill="white"></path><path d="M43.9242 6.76427C43.9242 6.40747 43.6708 6.11621 43.3087 6.11621H42.2733C41.9112 6.11621 41.6216 6.40747 41.6216 6.76427V17.1842C41.6216 17.541 41.9112 17.8322 42.2733 17.8322H43.2725C43.6346 17.8322 43.9242 17.541 43.9242 17.1842V6.76427Z" fill="white"></path><path d="M69.2604 12.9971C69.2169 11.7302 68.8694 10.7399 68.1959 10.0408C67.4863 9.29812 66.5233 8.92676 65.3213 8.92676C64.5682 8.92676 63.9237 9.05783 63.3734 9.32724C62.8303 9.58938 62.3742 9.93889 62.0266 10.3685C61.6718 10.7981 61.4111 11.2933 61.2518 11.8467C61.0853 12.4073 61.0056 12.9753 61.0056 13.5578C61.0056 14.3224 61.107 14.9777 61.317 15.5384C61.527 16.0991 61.8238 16.5578 62.2076 16.9219C62.5914 17.286 63.0621 17.5554 63.6196 17.7302C64.1772 17.9049 64.7999 17.9923 65.4806 17.9923C65.9585 17.9923 66.4364 17.934 66.9288 17.8175C67.0881 17.7811 67.2401 17.7374 67.385 17.6865C67.4501 17.6719 67.5443 17.6355 67.6746 17.5845C68.3625 17.3005 68.8404 16.9073 68.8404 16.9073C69.1011 16.7471 69.188 16.3976 69.0214 16.1355L68.5797 15.4292C68.4132 15.167 68.0729 15.1161 67.8049 15.2836C67.8049 15.2836 66.9722 15.8224 66.5016 15.9607C66.2409 16.0408 65.9005 16.1209 65.5457 16.1209C64.1917 16.1209 63.4531 15.4437 63.3445 14.0821H68.6232C68.9707 14.0821 69.2387 13.8054 69.2531 13.4486V13.0627C69.2604 13.0554 69.2604 13.0263 69.2604 12.9971ZM63.4386 12.3855C63.4965 11.8248 63.692 11.4025 64.0396 11.1185C64.3872 10.8272 64.7999 10.6816 65.2706 10.6816C65.5675 10.6816 65.8209 10.7326 66.0309 10.8345C66.2409 10.9365 66.4147 11.0675 66.5522 11.235C66.6898 11.4025 66.7912 11.5845 66.8564 11.7884C66.9215 11.9923 66.9577 12.1889 66.9577 12.3928H63.4386V12.3855Z" fill="white"></path><path d="M59.2241 11.2355C59.1662 10.7767 58.9997 10.3617 58.71 9.98303C58.4349 9.6408 58.109 9.37866 57.7252 9.19662C57.3415 9.01458 56.8708 8.91992 56.2915 8.91992C55.6978 8.91992 55.1764 9.05099 54.7419 9.30585C54.3075 9.56798 53.9744 9.86652 53.7427 10.2088V10.0122V9.67721C53.7427 9.32769 53.4603 9.04371 53.1127 9.04371H52.1424C51.7949 9.04371 51.5125 9.32769 51.5125 9.67721V17.199C51.5125 17.5558 51.8021 17.8471 52.1569 17.8471H53.1489C53.5037 17.8471 53.7934 17.5558 53.7934 17.199C53.7934 17.199 53.7934 13.2015 53.8006 12.9466C53.8079 12.6918 53.8368 12.466 53.8947 12.2694C53.931 12.1384 53.9816 11.9927 54.0613 11.8398C54.1409 11.6869 54.2496 11.5413 54.3944 11.4029C54.5392 11.2646 54.713 11.1481 54.923 11.0534C55.133 10.9588 55.3864 10.9151 55.6833 10.9151C55.9729 10.9151 56.2119 10.9588 56.4219 11.0461C56.6246 11.1335 56.7767 11.2864 56.8781 11.5122C56.9794 11.7306 57.0301 12.0874 57.0301 12.5753V17.2136C57.0301 17.5704 57.3198 17.8617 57.6746 17.8617H58.6666C59.0214 17.8617 59.311 17.5704 59.311 17.2136V16.9223V12.5389C59.311 12.1311 59.2821 11.6942 59.2241 11.2355Z" fill="white"></path><path d="M9.34095 7.65325C9.2613 7.41296 9.2251 7.20908 9.2251 7.0416C9.2251 6.75762 9.30475 6.56102 9.53646 6.40083C9.72473 6.27704 10.094 6.29888 10.485 6.28432C11.1512 6.26976 11.4191 6.24791 11.6436 6.83772C11.6436 6.83772 13.3887 13.9154 13.4394 14.1702C13.4901 14.4251 13.5335 14.6363 13.5625 14.7965C13.5987 14.6071 13.6349 14.4033 13.6783 14.1848C13.7218 13.9664 15.4017 9.24063 15.4017 9.24063C15.4886 8.89112 15.7131 8.71636 15.9665 8.59985C16.0389 8.57073 16.1185 8.53432 16.2199 8.53432C16.4806 8.53432 16.944 8.53432 17.1251 8.53432C17.2844 8.53432 17.4364 8.52704 17.5523 8.58529C17.8129 8.70908 18.0229 8.91296 18.1098 9.26976C18.1098 9.26976 19.9056 13.9955 19.949 14.2212C19.9997 14.4469 20.0359 14.629 20.0577 14.7746C20.0794 14.6435 20.1156 14.4688 20.159 14.2649C20.2025 14.0319 22.0127 6.83044 22.0127 6.83044C22.2589 6.24063 22.4834 6.30616 23.1713 6.30616C23.5551 6.30616 23.7723 6.26976 23.9895 6.40083C24.2502 6.55374 24.3081 6.77947 24.3081 7.0416C24.3081 7.12898 24.3009 7.23092 24.2864 7.34015C24.2719 7.44937 24.243 7.56587 24.1923 7.68966L21.4624 17.0392C21.3683 17.3304 21.2017 17.4979 20.9628 17.5999C20.8759 17.6363 20.7818 17.6581 20.6949 17.6581C20.4342 17.6581 19.4784 17.6581 19.4784 17.6581C19.2829 17.6581 19.1887 17.6435 19.0584 17.5853C18.7905 17.4397 18.6529 17.2503 18.5805 16.9736C18.5805 16.9736 16.7847 11.5634 16.7775 11.4615C16.763 11.5489 14.9238 17.0246 14.9238 17.0246C14.8369 17.3304 14.6703 17.4833 14.4169 17.5926C14.3373 17.629 14.2431 17.6363 14.1852 17.6363C13.9245 17.6363 12.8818 17.6363 12.8818 17.6363C12.7587 17.6363 12.6211 17.5853 12.5487 17.5562C12.3098 17.4397 12.165 17.2358 12.0781 16.9591L9.34095 7.65325Z" fill="white"></path><path d="M28.5585 7.5141C28.5585 7.8709 28.2689 8.16216 27.9068 8.16216H26.9076C26.5455 8.16216 26.2559 7.8709 26.2559 7.5141V6.73497C26.2559 6.37818 26.5455 6.08691 26.9076 6.08691H27.9068C28.2689 6.08691 28.5585 6.37818 28.5585 6.73497V7.5141Z" fill="white"></path><path d="M38.9131 11.2355C38.8552 10.7767 38.6886 10.3617 38.399 9.98303C38.1238 9.6408 37.798 9.37866 37.4142 9.19662C37.0304 9.01458 36.5598 8.91992 35.9805 8.91992C35.3867 8.91992 34.8654 9.05099 34.4309 9.30585C33.9965 9.56798 33.6634 9.86652 33.4316 10.2088V10.0122V9.67721C33.4316 9.32769 33.1493 9.04371 32.8017 9.04371H31.8314C31.4838 9.04371 31.2014 9.32769 31.2014 9.67721V17.199C31.2014 17.5558 31.4911 17.8471 31.8459 17.8471H32.8379C33.1927 17.8471 33.4823 17.5558 33.4823 17.199V13.5874C33.4823 13.4126 33.4823 13.1942 33.4896 12.9393C33.4968 12.6845 33.5258 12.4588 33.5837 12.2622C33.6199 12.1311 33.6706 11.9855 33.7503 11.8325C33.8299 11.6796 33.9385 11.534 34.0833 11.3956C34.2282 11.2573 34.402 11.1408 34.6119 11.0461C34.8219 10.9515 35.0754 10.9078 35.3722 10.9078C35.6619 10.9078 35.9081 10.9515 36.1108 11.0389C36.3136 11.1262 36.4656 11.2791 36.567 11.5049C36.6684 11.7233 36.7191 12.0801 36.7191 12.568V17.2063C36.7191 17.5631 37.0087 17.8544 37.3635 17.8544H38.3555C38.7104 17.8544 39 17.5631 39 17.2063V12.5316C38.9928 12.1311 38.971 11.6942 38.9131 11.2355Z" fill="white"></path><path d="M27.9068 9.09473H26.9075C26.5455 9.09473 26.2559 9.38599 26.2559 9.74278L26.2341 17.1773C26.2341 17.5413 26.531 17.8326 26.8931 17.8326H27.9068C28.2689 17.8326 28.5657 17.5413 28.5657 17.1773V9.74278C28.5585 9.38599 28.2616 9.09473 27.9068 9.09473Z" fill="white"></path><path d="M48.2689 9.09473H47.2696C46.9076 9.09473 46.6179 9.38599 46.6179 9.74278L46.5962 17.1773C46.5962 17.5413 46.8931 17.8326 47.2551 17.8326H48.2689C48.6309 17.8326 48.9278 17.5413 48.9278 17.1773V9.74278C48.9206 9.38599 48.6309 9.09473 48.2689 9.09473Z" fill="white"></path><path d="M95.7042 11.9999C95.7042 17.3518 91.3886 21.6844 86.0737 21.6844C80.7515 21.6844 76.4431 17.3446 76.4431 11.9999C76.4431 6.64796 80.7588 2.31544 86.0737 2.31544C91.3886 2.30816 95.7042 6.64796 95.7042 11.9999Z" fill="#FF6A13"></path></svg>