<svg width="286" height="79" viewBox="0 0 286 79" fill="none" xmlns="http://www.w3.org/2000/svg">
<path d="M54.5811 4.37783L50.2826 3.88035L48.4833 0L46.7838 3.88035L42.4854 4.37783L45.6842 7.16373L44.7845 11.3426L48.4833 9.25315L52.2819 11.3426L51.3822 7.16373L54.5811 4.37783Z" fill="#C4B684"/>
<path d="M87.0695 4.37783L82.871 3.88035L81.0716 0L79.3722 3.88035L75.0737 4.37783L78.2726 7.16373L77.3729 11.3426L81.0716 9.25315L84.8703 11.3426L83.9706 7.16373L87.0695 4.37783Z" fill="#C4B684"/>
<path d="M70.7751 4.37783L66.5766 3.88035L64.7772 0L63.0778 3.88035L58.7793 4.37783L61.9782 7.16373L61.0785 11.3426L64.7772 9.25315L68.5759 11.3426L67.6762 7.16373L70.7751 4.37783Z" fill="#C4B684"/>
<path d="M38.2867 4.37783L33.9882 3.88035L32.1888 0L30.4894 3.88035L26.1909 4.37783L29.3898 7.16373L28.4901 11.3426L32.1888 9.25315L35.9875 11.3426L35.0878 7.16373L38.2867 4.37783Z" fill="#C4B684"/>
<path d="M56.6802 13.9297L113.36 46.465L56.6802 79.0002L0 46.465L56.6802 13.9297Z" fill="#CC122D"/>
<path d="M71.0753 54.7224C67.5765 59.3987 61.8785 61.7866 56.6803 61.7866C47.7834 61.7866 38.8865 56.5133 38.8865 46.1657C38.8865 38.5045 45.5842 31.2413 56.6803 31.2413C60.2791 31.2413 63.6779 32.3358 65.5772 33.2312L68.6761 31.4403V38.3055L66.277 39.6985C64.1777 36.7136 60.579 34.7237 56.6803 34.7237C50.1826 34.7237 44.8844 39.997 44.8844 46.4642C44.8844 52.9315 50.1826 58.2048 56.6803 58.2048C60.9788 58.2048 65.0774 56.4138 67.8764 52.9315L71.0753 54.7224ZM106.263 46.4642L56.6803 75.0196L7.09766 46.4642L56.6803 18.0083L106.263 46.4642ZM56.6803 70.9403L99.1655 46.5637L84.9704 38.3055L63.7778 50.5436V53.031C61.8785 55.1204 59.0795 56.2149 56.2805 56.1154L57.7799 55.0209L55.0809 52.1355L51.1822 52.9315L51.782 54.9214C48.6831 53.23 46.8837 49.9466 46.8837 46.4642L48.2833 47.9567L50.9823 45.0713L49.7827 41.2904L48.0833 42.0864C49.3829 39.599 51.6821 37.8081 54.4811 37.2111L56.5804 38.405L58.6796 37.2111C61.6786 37.9075 64.1777 39.997 65.3773 42.7829L70.6754 39.6985V30.3458L56.4804 22.1871L14.1952 46.4642L28.3902 54.6229L37.0872 49.6481C37.9869 54.3244 40.7859 58.4038 45.4842 61.0902L42.5852 62.7816L56.6803 70.9403ZM57.8799 41.6884L54.9809 44.9718L57.1801 48.7526L61.4786 47.8572L61.9785 43.5788L57.8799 41.6884Z" fill="white"/>
<path d="M136.552 26.864C134.653 26.864 133.753 25.9685 133.753 24.7746C133.753 23.5806 134.653 22.6852 136.552 22.6852H137.652L136.952 21.4912H139.251V22.6852H140.351C142.25 22.6852 143.15 23.5806 143.15 24.7746C143.15 25.9685 142.25 26.864 140.351 26.864H139.251V27.859H137.552V26.864H136.552ZM137.652 25.869V23.7796H136.752C135.953 23.7796 135.453 24.2771 135.453 24.8741C135.453 25.4711 135.953 25.9685 136.752 25.9685H137.652V25.869ZM140.151 25.869C140.951 25.869 141.451 25.3716 141.451 24.7746C141.451 24.1776 140.951 23.6801 140.151 23.6801H139.251V25.869H140.151Z" fill="#0E1821"/>
<path d="M143.45 21.5908H145.449L147.348 24.7747L149.148 21.5908H150.447L146.948 27.8591H145.549L146.349 26.3666L143.45 21.5908Z" fill="#0E1821"/>
<path d="M157.345 21.5908V22.7848H155.046V27.8591H153.446V22.7848H151.147V21.5908H157.345Z" fill="#0E1821"/>
<path d="M162.243 27.8591H158.944V22.7848L158.245 21.5908H164.342V22.7848H160.644V23.8792H162.343C164.143 23.8792 165.042 24.7747 165.042 25.8692C164.942 26.9636 164.043 27.8591 162.243 27.8591ZM162.043 26.8641C162.843 26.8641 163.343 26.4661 163.343 25.8692C163.343 25.3717 162.943 24.8742 162.043 24.8742H160.544V26.8641H162.043Z" fill="#0E1821"/>
<path d="M173.639 24.7746C173.639 26.5655 172.14 28.058 169.94 28.058C167.741 28.058 166.242 26.5655 166.242 24.7746C166.242 22.9837 167.741 21.4912 169.94 21.4912C172.04 21.4912 173.639 22.9837 173.639 24.7746ZM171.94 24.7746C171.94 23.5806 171.04 22.6852 169.84 22.6852C168.641 22.6852 167.741 23.5806 167.741 24.7746C167.741 25.9685 168.641 26.864 169.84 26.864C171.04 26.864 171.94 25.9685 171.94 24.7746Z" fill="#0E1821"/>
<path d="M175.539 27.8591H174.239L176.538 22.6853L175.939 21.5908H178.838L181.537 27.8591H179.737L177.638 23.0833L175.539 27.8591Z" fill="#0E1821"/>
<path d="M186.035 23.6802C187.934 23.6802 188.834 24.5757 188.834 25.7697C188.834 26.9636 187.934 27.8591 186.035 27.8591H182.836V22.7848L182.136 21.5908H184.435V23.6802H186.035ZM184.535 24.6752V26.8641H185.935C186.735 26.8641 187.234 26.3666 187.234 25.7697C187.234 25.1727 186.735 24.6752 185.935 24.6752H184.535Z" fill="#0E1821"/>
<path d="M196.731 27.8591H195.132V25.1727H192.033V27.8591H190.434V22.7848L189.734 21.5908H192.033V24.0782H195.132V21.5908H196.731V27.8591Z" fill="#0E1821"/>
<path d="M201.929 23.6802C203.829 23.6802 204.728 24.5757 204.728 25.7697C204.728 26.9636 203.829 27.8591 201.929 27.8591H199.03V22.7848L198.331 21.5908H200.63V23.6802H201.929ZM200.63 24.6752V26.8641H201.729C202.529 26.8641 203.029 26.3666 203.029 25.7697C203.029 25.1727 202.529 24.6752 201.729 24.6752H200.63ZM207.327 27.8591H205.628V22.7848L204.928 21.5908H207.227V27.8591H207.327Z" fill="#0E1821"/>
<path d="M216.025 27.8589H214.325V23.3816L211.326 27.8589H209.527V22.7846L208.827 21.5906H211.126V26.068L214.125 21.5906H215.925V27.8589H216.025ZM212.526 20.9936C211.626 20.9936 211.026 20.4962 211.026 19.7002H212.226C212.226 20.0982 212.426 20.2972 212.726 20.2972H212.926C213.226 20.2972 213.426 20.0982 213.426 19.7002H214.625C214.625 20.4962 214.125 20.9936 213.126 20.9936H212.526Z" fill="#0E1821"/>
<path d="M222.822 24.0782H223.422L225.621 21.5908H227.22L224.721 24.3767L227.42 27.8591H225.421L223.422 25.1727H222.822V27.8591H221.123V22.7848L220.423 21.5908H222.822V24.0782Z" fill="#0E1821"/>
<path d="M229.62 27.8591H228.22L230.619 22.6853L230.02 21.5908H232.819L235.618 27.8591H233.818L231.719 23.0833L229.62 27.8591Z" fill="#0E1821"/>
<path d="M235.318 21.5908H237.317L239.217 24.7747L241.016 21.5908H242.415L238.817 27.8591H237.417L238.317 26.3666L235.318 21.5908Z" fill="#0E1821"/>
<path d="M247.313 27.8591H243.915V22.7848L243.215 21.5908H249.313V22.7848H245.614V23.8792H247.313C249.113 23.8792 250.012 24.7747 250.012 25.8692C250.012 26.9636 249.113 27.8591 247.313 27.8591ZM247.113 26.8641C247.913 26.8641 248.413 26.4661 248.413 25.8692C248.413 25.3717 248.013 24.8742 247.113 24.8742H245.614V26.8641H247.113Z" fill="#0E1821"/>
<path d="M145.549 65.0703V74.423H143.05V68.3537L139.551 74.423L136.053 68.3537V74.423H134.353V66.8612L133.354 65.0703H137.252L140.051 70.1446L142.95 65.0703H145.549Z" fill="#CC122D"/>
<path d="M159.244 69.7469C159.244 72.4333 156.945 74.6222 153.646 74.6222C150.348 74.6222 148.048 72.3338 148.048 69.7469C148.048 67.0605 150.348 64.8716 153.646 64.8716C156.945 64.8716 159.244 67.16 159.244 69.7469ZM156.645 69.7469C156.645 67.956 155.346 66.563 153.546 66.563C151.847 66.563 150.447 67.956 150.447 69.7469C150.447 71.5378 151.747 72.9308 153.546 72.9308C155.346 72.9308 156.645 71.5378 156.645 69.7469Z" fill="#CC122D"/>
<path d="M163.443 69.7467C163.443 71.5376 164.842 72.9306 166.542 72.9306C168.741 72.9306 169.841 71.1396 169.841 71.1396L171.34 72.0351C171.34 72.0351 169.841 74.622 166.442 74.622C163.143 74.622 160.844 72.3336 160.844 69.7467C160.844 67.0603 163.143 64.8714 166.442 64.8714C168.041 64.8714 169.141 65.3688 169.141 65.3688L170.44 64.6724V67.5578L169.341 68.2542C169.341 68.2542 168.441 66.6623 166.542 66.6623C164.842 66.5628 163.443 67.9557 163.443 69.7467Z" fill="#CC122D"/>
<path d="M175.938 68.7517H176.938L180.237 65.0703H182.636L178.837 69.2492L182.936 74.423H179.837L176.938 70.4431H175.938V74.423H173.439V66.8612L172.439 65.0703H175.938V68.7517Z" fill="#CC122D"/>
<path d="M192.033 69.3488C192.033 69.3488 194.132 69.8462 194.132 71.7367C194.132 73.1296 192.833 74.4231 190.234 74.4231H185.135V66.8614L184.136 65.1699H189.834C192.333 65.1699 193.532 66.2644 193.532 67.5578C193.432 68.7518 192.033 69.3488 192.033 69.3488ZM187.535 66.6624V68.7518H189.534C190.534 68.7518 191.033 68.2543 191.033 67.6573C191.033 67.0604 190.534 66.5629 189.534 66.5629H187.535V66.6624ZM187.535 70.2442V72.9306H189.834C190.933 72.9306 191.533 72.3337 191.533 71.6372C191.533 70.9407 190.933 70.3437 189.834 70.3437H187.535V70.2442Z" fill="#CC122D"/>
<path d="M195.032 74.4231L198.531 66.6624L197.631 65.1699H201.929L206.028 74.5226H203.329L202.629 72.8311H197.831L197.131 74.5226H195.032V74.4231ZM198.531 71.0402H201.829L200.13 67.2593L198.531 71.0402Z" fill="#CC122D"/>
<path d="M136.952 46.4649C136.952 50.0468 139.751 52.8327 143.25 52.8327C147.649 52.8327 149.848 49.3503 149.848 49.3503L152.947 51.1412C152.947 51.1412 149.848 56.315 143.15 56.315C136.453 56.315 131.954 51.8377 131.954 46.4649C131.954 41.0921 136.453 36.6148 143.15 36.6148C146.349 36.6148 148.648 37.7092 148.648 37.7092L151.147 36.2168V41.9876L148.848 43.281C148.848 43.281 146.949 40.0971 143.25 40.0971C139.751 40.0971 136.952 42.883 136.952 46.4649Z" fill="#CC122D"/>
<path d="M175.239 55.8172H170.341V40.5943H162.043V55.8172H157.045V40.5943L155.046 37.2114H175.239V55.8172Z" fill="#CC122D"/>
<path d="M178.638 55.8172L185.635 40.2958L183.936 37.2114H192.533L200.83 55.8172H195.332L193.832 52.5338H184.236L182.736 55.8172H178.638ZM185.635 49.0515H192.333L189.034 41.4898L185.635 49.0515Z" fill="#CC122D"/>
<path d="M212.726 37.2118C218.524 37.2118 221.423 40.0972 221.423 43.7786C221.423 47.3604 218.524 50.3453 212.726 50.3453H209.127V55.9171H204.229V40.5947L202.229 37.1123H212.726V37.2118ZM209.127 47.1614H212.226C214.925 47.1614 216.525 45.5695 216.525 43.6791C216.525 41.7886 214.925 40.1967 212.226 40.1967H209.127V47.1614Z" fill="#CC122D"/>
<path d="M241.815 37.2114V40.5943H235.018V55.8172H230.019V40.5943H224.621L222.522 37.2114H241.815Z" fill="#CC122D"/>
<path d="M241.616 55.8172L248.613 40.2958L246.914 37.2114H255.511L263.808 55.8172H258.31L256.81 52.5338H247.214L245.714 55.8172H241.616ZM248.613 49.0515H255.311L252.012 41.4898L248.613 49.0515Z" fill="#CC122D"/>
<path d="M272.105 44.3752H274.104L280.602 37.2114H285.5L277.803 45.3701L286 55.8172H280.002L274.004 47.8575H272.105V55.8172H267.107V40.5943L265.107 37.2114H272.105V44.3752Z" fill="#CC122D"/>
</svg>
