<svg width="218" height="61" viewBox="0 0 218 61" fill="none" xmlns="http://www.w3.org/2000/svg">
    <path d="M41.6036 3.38035L38.3272 2.99622L36.9556 0L35.6603 2.99622L32.3838 3.38035L34.8221 5.53149L34.1363 8.75819L36.9556 7.14484L39.8511 8.75819L39.1653 5.53149L41.6036 3.38035Z" fill="#C5B783"/>
    <path d="M66.3677 3.38035L63.1674 2.99622L61.7959 0L60.5005 2.99622L57.2241 3.38035L59.6624 5.53149L58.9766 8.75819L61.7959 7.14484L64.6914 8.75819L64.0056 5.53149L66.3677 3.38035Z" fill="#C5B783"/>
    <path d="M53.9475 3.38035L50.7473 2.99622L49.3757 0L48.0804 2.99622L44.8039 3.38035L47.2422 5.53149L46.5564 8.75819L49.3757 7.14484L52.2712 8.75819L51.5854 5.53149L53.9475 3.38035Z" fill="#C5B783"/>
    <path d="M29.1835 3.38035L25.907 2.99622L24.5355 0L23.2401 2.99622L19.9637 3.38035L22.402 5.53149L21.7162 8.75819L24.5355 7.14484L27.431 8.75819L26.7452 5.53149L29.1835 3.38035Z" fill="#C5B783"/>
    <path d="M43.2038 10.7559L86.4075 35.878L43.2038 61.0002L0 35.878L43.2038 10.7559Z" fill="#C8122D"/>
    <path d="M54.1762 42.2546C51.5093 45.8655 47.166 47.7093 43.2038 47.7093C36.4222 47.7093 29.6407 43.6375 29.6407 35.6476C29.6407 29.732 34.7459 24.1236 43.2038 24.1236C45.9469 24.1236 48.5376 24.9687 49.9853 25.6602L52.3474 24.2773V29.5783L50.5187 30.6539C48.9186 28.3491 46.1755 26.8126 43.2038 26.8126C38.251 26.8126 34.2125 30.8844 34.2125 35.8781C34.2125 40.8718 38.251 44.9435 43.2038 44.9435C46.4803 44.9435 49.6043 43.5607 51.7379 40.8718L54.1762 42.2546ZM80.9976 35.8781L43.2038 57.9272L5.41 35.8781L43.2038 13.9058L80.9976 35.8781ZM43.2038 54.7773L75.5876 35.9549L64.7676 29.5783L48.6138 39.0279V40.9486C47.166 42.5619 45.0325 43.407 42.899 43.3302L44.042 42.4851L41.9846 40.2572L39.0129 40.8718L39.4701 42.4083C37.108 41.1022 35.7365 38.567 35.7365 35.8781L36.8032 37.0304L38.8605 34.8025L37.9462 31.8831L36.6508 32.4977C37.6414 30.577 39.3939 29.1942 41.5274 28.7332L43.1276 29.6551L44.7277 28.7332C47.0136 29.271 48.9186 30.8844 49.8329 33.0355L53.8714 30.6539V23.4322L43.0514 17.1325L10.82 35.8781L21.64 42.1778L28.2691 38.3365C28.9549 41.9473 31.0884 45.0972 34.6697 47.1715L32.46 48.4776L43.2038 54.7773ZM44.1181 32.1904L41.9084 34.7257L43.5848 37.6451L46.8612 36.9536L47.2422 33.6501L44.1181 32.1904Z" fill="white"/>
    <path d="M104.085 20.7429C102.638 20.7429 101.952 20.0514 101.952 19.1295C101.952 18.2076 102.638 17.5162 104.085 17.5162H104.923L104.39 16.5942H106.143V17.5162H106.981C108.429 17.5162 109.114 18.2076 109.114 19.1295C109.114 20.0514 108.429 20.7429 106.981 20.7429H106.143V21.5111H104.847V20.7429H104.085ZM104.923 19.9746V18.3612H104.238C103.628 18.3612 103.247 18.7454 103.247 19.2063C103.247 19.6673 103.628 20.0514 104.238 20.0514H104.923V19.9746ZM106.828 19.9746C107.438 19.9746 107.819 19.5905 107.819 19.1295C107.819 18.6685 107.438 18.2844 106.828 18.2844H106.143V19.9746H106.828Z" fill="white"/>
    <path d="M109.343 16.6714H110.867L112.315 19.1298L113.686 16.6714H114.677L112.01 21.5114H110.943L111.553 20.359L109.343 16.6714Z" fill="white"/>
    <path d="M119.934 16.6714V17.5933H118.182V21.5114H116.963V17.5933H115.21V16.6714H119.934Z" fill="white"/>
    <path d="M123.668 21.5114H121.153V17.5933L120.62 16.6714H125.268V17.5933H122.449V18.4384H123.744C125.116 18.4384 125.801 19.1298 125.801 19.9749C125.725 20.82 125.039 21.5114 123.668 21.5114ZM123.516 20.7432C124.125 20.7432 124.506 20.4359 124.506 19.9749C124.506 19.5908 124.201 19.2067 123.516 19.2067H122.373V20.7432H123.516Z" fill="white"/>
    <path d="M132.354 19.1295C132.354 20.5124 131.211 21.6648 129.535 21.6648C127.859 21.6648 126.716 20.5124 126.716 19.1295C126.716 17.7466 127.859 16.5942 129.535 16.5942C131.135 16.5942 132.354 17.7466 132.354 19.1295ZM131.059 19.1295C131.059 18.2076 130.373 17.5162 129.459 17.5162C128.545 17.5162 127.859 18.2076 127.859 19.1295C127.859 20.0514 128.545 20.7429 129.459 20.7429C130.373 20.7429 131.059 20.0514 131.059 19.1295Z" fill="white"/>
    <path d="M133.802 21.5114H132.812L134.564 17.5165L134.107 16.6714H136.317L138.374 21.5114H137.002L135.402 17.8238L133.802 21.5114Z" fill="white"/>
    <path d="M141.803 18.2847C143.251 18.2847 143.936 18.9762 143.936 19.8981C143.936 20.82 143.251 21.5114 141.803 21.5114H139.365V17.5933L138.831 16.6714H140.584V18.2847H141.803ZM140.66 19.053V20.7432H141.727C142.336 20.7432 142.717 20.359 142.717 19.8981C142.717 19.4371 142.336 19.053 141.727 19.053H140.66Z" fill="white"/>
    <path d="M149.956 21.5114H148.737V19.4371H146.375V21.5114H145.156V17.5933L144.622 16.6714H146.375V18.592H148.737V16.6714H149.956V21.5114Z" fill="white"/>
    <path d="M153.918 18.2847C155.366 18.2847 156.052 18.9762 156.052 19.8981C156.052 20.82 155.366 21.5114 153.918 21.5114H151.708V17.5933L151.175 16.6714H152.928V18.2847H153.918ZM152.928 19.053V20.7432H153.766C154.375 20.7432 154.756 20.359 154.756 19.8981C154.756 19.4371 154.375 19.053 153.766 19.053H152.928ZM158.033 21.5114H156.738V17.5933L156.204 16.6714H157.957V21.5114H158.033Z" fill="white"/>
    <path d="M164.662 21.5112H163.367V18.054L161.081 21.5112H159.709V17.593L159.176 16.6711H160.928V20.1283L163.214 16.6711H164.586V21.5112H164.662ZM161.995 16.2102C161.309 16.2102 160.852 15.826 160.852 15.2114H161.766C161.766 15.5187 161.919 15.6724 162.147 15.6724H162.3C162.528 15.6724 162.681 15.5187 162.681 15.2114H163.595C163.595 15.826 163.214 16.2102 162.452 16.2102H161.995Z" fill="white"/>
    <path d="M169.843 18.592H170.301L171.977 16.6714H173.196L171.291 18.8225L173.348 21.5114H171.825L170.301 19.4371H169.843V21.5114H168.548V17.5933L168.015 16.6714H169.843V18.592Z" fill="white"/>
    <path d="M175.025 21.5114H173.958L175.787 17.5165L175.33 16.6714H177.463L179.597 21.5114H178.225L176.625 17.8238L175.025 21.5114Z" fill="white"/>
    <path d="M179.368 16.6714H180.892L182.34 19.1298L183.711 16.6714H184.778L182.035 21.5114H180.968L181.654 20.359L179.368 16.6714Z" fill="white"/>
    <path d="M188.512 21.5114H185.921V17.5933L185.388 16.6714H190.036V17.5933H187.216V18.4384H188.512C189.883 18.4384 190.569 19.1298 190.569 19.9749C190.569 20.82 189.883 21.5114 188.512 21.5114ZM188.359 20.7432C188.969 20.7432 189.35 20.4359 189.35 19.9749C189.35 19.5908 189.045 19.2067 188.359 19.2067H187.216V20.7432H188.359Z" fill="white"/>
    <path d="M110.943 50.2441V57.4658H109.038V52.7794L106.371 57.4658L103.704 52.7794V57.4658H102.409V51.627L101.647 50.2441H104.619L106.752 54.1623L108.962 50.2441H110.943Z" fill="#C8122D"/>
    <path d="M121.382 53.8553C121.382 55.9296 119.629 57.6198 117.115 57.6198C114.6 57.6198 112.848 55.8528 112.848 53.8553C112.848 51.781 114.6 50.0908 117.115 50.0908C119.629 50.0908 121.382 51.8578 121.382 53.8553ZM119.401 53.8553C119.401 52.4724 118.41 51.3969 117.039 51.3969C115.743 51.3969 114.677 52.4724 114.677 53.8553C114.677 55.2382 115.667 56.3137 117.039 56.3137C118.41 56.3137 119.401 55.2382 119.401 53.8553Z" fill="#C8122D"/>
    <path d="M124.582 53.8551C124.582 55.238 125.649 56.3136 126.944 56.3136C128.621 56.3136 129.459 54.9307 129.459 54.9307L130.602 55.6222C130.602 55.6222 129.459 57.6196 126.868 57.6196C124.354 57.6196 122.601 55.8526 122.601 53.8551C122.601 51.7808 124.354 50.0907 126.868 50.0907C128.087 50.0907 128.926 50.4748 128.926 50.4748L129.916 49.937V52.165L129.078 52.7028C129.078 52.7028 128.392 51.4735 126.944 51.4735C125.649 51.3967 124.582 52.4723 124.582 53.8551Z" fill="#C8122D"/>
    <path d="M134.107 53.0867H134.869L137.383 50.2441H139.212L136.317 53.4708L139.441 57.4658H137.079L134.869 54.3928H134.107V57.4658H132.202V51.627L131.44 50.2441H134.107V53.0867Z" fill="#C8122D"/>
    <path d="M146.375 53.548C146.375 53.548 147.975 53.9321 147.975 55.3918C147.975 56.4674 146.984 57.4661 145.003 57.4661H141.117V51.6273L140.355 50.3213H144.698C146.603 50.3213 147.518 51.1664 147.518 52.1651C147.441 53.087 146.375 53.548 146.375 53.548ZM142.946 51.4737V53.087H144.47C145.232 53.087 145.613 52.7029 145.613 52.2419C145.613 51.781 145.232 51.3969 144.47 51.3969H142.946V51.4737ZM142.946 54.2394V56.3137H144.698C145.537 56.3137 145.994 55.8528 145.994 55.315C145.994 54.7772 145.537 54.3163 144.698 54.3163H142.946V54.2394Z" fill="#C8122D"/>
    <path d="M148.661 57.4661L151.328 51.4737L150.642 50.3213H153.918L157.042 57.543H154.985L154.452 56.2369H150.794L150.261 57.543H148.661V57.4661ZM151.328 54.854H153.842L152.547 51.9346L151.328 54.854Z" fill="#C8122D"/>
    <path d="M104.39 35.8779C104.39 38.6437 106.524 40.7948 109.19 40.7948C112.543 40.7948 114.219 38.1059 114.219 38.1059L116.582 39.4888C116.582 39.4888 114.219 43.4837 109.114 43.4837C104.009 43.4837 100.58 40.0266 100.58 35.8779C100.58 31.7293 104.009 28.2721 109.114 28.2721C111.553 28.2721 113.305 29.1172 113.305 29.1172L115.21 27.9648V32.4208L113.458 33.4195C113.458 33.4195 112.01 30.9611 109.19 30.9611C106.524 30.9611 104.39 33.1122 104.39 35.8779Z" fill="#C8122D"/>
    <path d="M133.574 43.0994H129.84V31.345H123.516V43.0994H119.706V31.345L118.182 28.7329H133.574V43.0994Z" fill="#C8122D"/>
    <path d="M136.164 43.0994L141.498 31.1145L140.203 28.7329H146.756L153.08 43.0994H148.889L147.746 40.5641H140.431L139.288 43.0994H136.164ZM141.498 37.8752H146.603L144.089 32.0364L141.498 37.8752Z" fill="#C8122D"/>
    <path d="M162.147 28.7331C166.567 28.7331 168.777 30.961 168.777 33.8036C168.777 36.5694 166.567 38.8741 162.147 38.8741H159.404V43.1764H155.671V31.3452L154.147 28.6562H162.147V28.7331ZM159.404 36.4157H161.767C163.824 36.4157 165.043 35.1865 165.043 33.7268C165.043 32.2671 163.824 31.0379 161.767 31.0379H159.404V36.4157Z" fill="#C8122D"/>
    <path d="M184.321 28.7329V31.345H179.139V43.0994H175.33V31.345H171.215L169.615 28.7329H184.321Z" fill="#C8122D"/>
    <path d="M184.168 43.0994L189.502 31.1145L188.207 28.7329H194.76L201.084 43.0994H196.893L195.75 40.5641H188.436L187.293 43.0994H184.168ZM189.502 37.8752H194.607L192.093 32.0364L189.502 37.8752Z" fill="#C8122D"/>
    <path d="M207.409 34.2644H208.933L213.885 28.7329H217.619L211.752 35.0327L218 43.0994H213.428L208.856 36.9533H207.409V43.0994H203.599V31.345L202.075 28.7329H207.409V34.2644Z" fill="#C8122D"/>
</svg>
