<svg width="96" height="96" viewBox="0 0 96 96" fill="none" xmlns="http://www.w3.org/2000/svg">
<rect width="96" height="96" rx="48" fill="#FFEEF1"/>
<path d="M70 36H26C24.8954 36 24 36.8954 24 38V46C24 47.1046 24.8954 48 26 48H70C71.1046 48 72 47.1046 72 46V38C72 36.8954 71.1046 36 70 36Z" stroke="#C8122D" stroke-width="3" stroke-linecap="round" stroke-linejoin="round"/>
<path d="M68 48V66C68 66.5304 67.7893 67.0391 67.4142 67.4142C67.0391 67.7893 66.5304 68 66 68H30C29.4696 68 28.9609 67.7893 28.5858 67.4142C28.2107 67.0391 28 66.5304 28 66V48" stroke="#C8122D" stroke-width="3" stroke-linecap="round" stroke-linejoin="round"/>
<path d="M48 36V68" stroke="#C8122D" stroke-width="3" stroke-linecap="round" stroke-linejoin="round"/>
<path d="M59.3137 33.1719C56.4853 36.0003 48 36.0003 48 36.0003C48 36.0003 48 27.515 50.8284 24.6866C51.9539 23.5624 53.4797 22.9312 55.0704 22.9316C56.6611 22.9321 58.1865 23.5642 59.3113 24.689C60.4361 25.8138 61.0682 27.3392 61.0687 28.9299C61.0691 30.5206 60.4379 32.0464 59.3137 33.1719V33.1719Z" stroke="#C8122D" stroke-width="3" stroke-linecap="round" stroke-linejoin="round"/>
<path d="M36.6861 33.1719C39.5145 36.0003 47.9998 36.0003 47.9998 36.0003C47.9998 36.0003 47.9998 27.515 45.1714 24.6866C44.0459 23.5624 42.5202 22.9312 40.9294 22.9316C39.3387 22.9321 37.8133 23.5642 36.6885 24.689C35.5637 25.8138 34.9316 27.3392 34.9312 28.9299C34.9307 30.5206 35.5619 32.0464 36.6861 33.1719V33.1719Z" stroke="#C8122D" stroke-width="3" stroke-linecap="round" stroke-linejoin="round"/>
</svg>
