<svg width="22" height="20" viewBox="0 0 22 20" fill="none" xmlns="http://www.w3.org/2000/svg">
<path d="M16 9.375H18.1137C18.2298 9.375 18.3436 9.34268 18.4423 9.28166C18.541 9.22064 18.6208 9.13332 18.6727 9.02951L20.1106 6.15382C20.182 6.01093 20.1961 5.8461 20.1498 5.6932C20.1035 5.54029 20.0004 5.41092 19.8617 5.33166L16 3.125" stroke="white" stroke-width="2" stroke-linecap="round" stroke-linejoin="round"/>
<path d="M6.00006 9.375H3.88633C3.77026 9.375 3.65648 9.34268 3.55775 9.28166C3.45901 9.22064 3.37922 9.13332 3.32731 9.02951L1.88947 6.15382C1.81802 6.01093 1.80401 5.8461 1.8503 5.6932C1.8966 5.54029 1.99969 5.41092 2.1384 5.33166L6.00006 3.125" stroke="white" stroke-width="2" stroke-linecap="round" stroke-linejoin="round"/>
<path d="M13.5 3.125C13.5 3.78804 13.2366 4.42393 12.7678 4.89277C12.2989 5.36161 11.663 5.625 11 5.625C10.337 5.625 9.70107 5.36161 9.23223 4.89277C8.76339 4.42393 8.5 3.78804 8.5 3.125H6V16.25C6 16.4158 6.06585 16.5747 6.18306 16.6919C6.30027 16.8092 6.45924 16.875 6.625 16.875H15.375C15.5408 16.875 15.6997 16.8092 15.8169 16.6919C15.9342 16.5747 16 16.4158 16 16.25V3.125H13.5Z" stroke="white" stroke-width="2" stroke-linecap="round" stroke-linejoin="round"/>
</svg>
