<svg width="76" height="75" viewBox="0 0 76 75" fill="none" xmlns="http://www.w3.org/2000/svg">
<path fill-rule="evenodd" clip-rule="evenodd" d="M69.937 13.4558C71.135 14.6982 71.099 16.6765 69.8567 17.8745L40.6898 45.9995C39.4793 47.1668 37.562 47.1668 36.3515 45.9995L21.7683 31.937C20.526 30.739 20.49 28.7607 21.688 27.5183C22.886 26.276 24.8643 26.24 26.1067 27.438L38.5207 39.4088L65.5183 13.3755C66.7607 12.1775 68.739 12.2135 69.937 13.4558Z" fill="#CC122D"/>
<path fill-rule="evenodd" clip-rule="evenodd" d="M38.0945 10C22.8649 10 10.5189 22.3122 10.5189 37.5C10.5189 52.6878 22.8649 65 38.0945 65C52.2862 65 63.9779 54.306 65.5017 40.5598C65.7108 38.6728 67.4143 37.3122 69.3065 37.5208C71.1987 37.7294 72.563 39.4282 72.3538 41.3152C70.4482 58.5062 55.8393 71.875 38.0945 71.875C19.0575 71.875 3.625 56.4848 3.625 37.5C3.625 18.5152 19.0575 3.125 38.0945 3.125C41.4112 3.125 44.6241 3.59315 47.6676 4.46896C49.4966 4.99531 50.5515 6.90069 50.0237 8.72474C49.4959 10.5488 47.5853 11.6008 45.7562 11.0744C43.3278 10.3756 40.7581 10 38.0945 10Z" fill="white"/>
</svg>
