<svg width="229" height="228" viewBox="0 0 229 228" fill="none" xmlns="http://www.w3.org/2000/svg">
<g clip-path="url(#clip0_8357_246059)">
<rect width="229" height="227" transform="translate(0 0.5)" fill="white"/>
<path d="M87.8803 0.899094C87.3926 1.12077 86.5946 1.74147 86.1069 2.2735C85.3088 3.16022 85.2202 4.04694 84.9985 13.3132C84.7768 23.2001 84.7768 23.3774 83.5354 25.8602C82.826 27.3233 81.3629 29.2298 80.0329 30.3825C77.9047 32.3333 77.2397 32.5993 64.6483 36.6339C42.6133 43.7719 41.5493 44.171 35.4309 48.7819C28.3371 54.1465 23.3272 61.5063 20.401 70.8612L19.1596 74.7628L19.0266 149.247C18.9379 202.229 19.0709 224.086 19.4256 224.884C20.534 227.677 24.7903 228.209 26.9627 225.904L28.0268 224.751L28.2485 150.666C28.4702 81.3245 28.5588 76.3589 29.2682 73.9204C31.7954 65.7182 36.5836 59.1565 43.3227 54.8116C47.0912 52.3731 49.3524 51.5307 65.4907 46.3878C72.9391 44.038 80.3432 41.3778 81.9836 40.5354C87.3926 37.6979 92.0479 31.8456 93.644 25.7272C94.4864 22.6237 94.575 4.66765 93.777 2.93854C92.8903 0.94342 90.1414 0.0123749 87.8803 0.899094Z" fill="#A5ACB8"/>
<path d="M134.566 1.25372C132.526 2.53946 132.349 3.55919 132.526 14.7318C132.659 24.1754 132.748 25.3281 133.679 27.7666C135.674 33.1756 139.93 38.0082 144.807 40.5797C146.448 41.3777 153.807 43.9936 161.256 46.3877C168.704 48.7375 176.064 51.176 177.66 51.7967C187.192 55.5653 194.286 63.5014 197.478 73.9203C198.188 76.3588 198.276 81.3244 198.498 150.666L198.72 224.751L199.784 225.904C201.956 228.209 206.212 227.677 207.321 224.884C207.676 224.086 207.809 202.229 207.72 149.247L207.587 74.7627L206.345 70.8612C202.621 58.8905 195.128 49.8459 184.488 44.4813C181.473 42.9738 178.015 41.7324 160.724 36.1904C149.152 32.4662 148.842 32.3332 146.492 30.2051C142.413 26.4809 142.014 25.1508 141.748 13.2688L141.526 3.16017L140.374 2.00743C138.866 0.544342 136.206 0.189651 134.566 1.25372Z" fill="#A5ACB8"/>
<path d="M77.8159 58.0037C76.1311 59.0678 75.7764 60.2648 75.5104 66.5605C75.3774 69.6197 74.9784 73.2109 74.6237 74.541C73.604 78.1322 71.1212 82.8762 68.86 85.4477C66.2885 88.3738 65.7565 89.7039 66.3772 91.6547C67.0866 93.7385 68.7713 94.9355 70.9438 94.9355C72.5842 94.9355 73.0276 94.6695 75.2444 92.3641C81.8948 85.5363 85.3087 75.7824 84.9096 64.6541C84.7766 60.2648 84.688 59.8658 83.6239 58.7574C82.1165 57.2943 79.4563 56.9396 77.8159 58.0037Z" fill="#A5ACB8"/>
<path d="M144.63 57.649C144.142 57.8707 143.344 58.4914 142.856 59.0234C142.058 59.9102 141.97 60.6195 141.97 66.7379C142.014 73.8316 142.457 76.4475 144.586 81.7234C146.182 85.6693 148.354 88.9945 151.28 92.1424C153.719 94.6695 154.118 94.9355 155.758 94.9355C157.975 94.9355 159.66 93.7385 160.369 91.6547C160.99 89.7039 160.458 88.3738 157.931 85.492C155.492 82.6988 153.142 78.3096 152.167 74.7627C151.768 73.2996 151.369 69.6197 151.236 66.5605C151.103 63.5014 150.793 60.4422 150.527 59.7771C149.729 57.7377 146.935 56.718 144.63 57.649Z" fill="#A5ACB8"/>
<path d="M110.758 77.0239C108.408 78.7087 108.497 75.9155 108.497 142.375C108.497 208.835 108.408 206.042 110.758 207.726C112.088 208.657 114.659 208.657 115.989 207.726C118.339 206.042 118.25 208.835 118.25 142.375C118.25 75.9155 118.339 78.7087 115.989 77.0239C115.413 76.6249 114.26 76.3145 113.373 76.3145C112.487 76.3145 111.334 76.6249 110.758 77.0239Z" fill="#A5ACB8"/>
<path d="M49.2633 105.487C46.8691 107.394 46.8248 108.813 48.8643 114.931C54.2732 130.759 56.4014 144.06 56.4014 161.883C56.4014 177.267 55.3816 185.159 51.3027 201.342C49.0416 210.386 47.3125 219.342 47.3125 222.224C47.3125 224.529 48.0662 225.948 49.751 226.835C51.7018 227.899 54.0072 227.456 55.4703 225.682C56.091 224.928 56.623 223.864 56.623 223.288C56.623 221.116 58.5295 211.406 60.3916 204.002C64.4262 187.997 65.4459 180.504 65.8006 165.43C66.1996 147.385 64.6035 134.616 59.9482 118.389C57.5098 109.965 55.8693 106.108 54.4062 105.354C52.7215 104.468 50.416 104.512 49.2633 105.487Z" fill="#A5ACB8"/>
<path d="M172.252 105.355C170.877 106.108 169.326 109.877 166.843 118.212C162.232 134.084 160.547 147.341 160.946 165.43C161.301 180.504 162.321 187.908 166.355 204.002C168.217 211.45 170.124 221.16 170.124 223.332C170.124 225.062 172.296 227.057 174.424 227.367C176.153 227.589 176.464 227.456 177.927 225.993L179.567 224.352L179.257 220.938C178.902 216.239 177.617 209.899 175.267 200.544C171.41 185.381 170.345 177.134 170.345 161.883C170.345 144.237 172.429 131.069 177.661 115.552C178.636 112.67 179.434 109.788 179.434 109.212C179.434 105.665 175.533 103.581 172.252 105.355Z" fill="#A5ACB8"/>
<rect x="57.5" y="126.5" width="112" height="30" rx="15" fill="#0D1116" fill-opacity="0.5"/>
<path d="M70.932 145.62C70.108 145.62 69.356 145.428 68.676 145.044C67.996 144.66 67.46 144.14 67.068 143.484C66.684 142.82 66.492 142.092 66.492 141.3C66.492 140.508 66.684 139.784 67.068 139.128C67.46 138.464 67.996 137.94 68.676 137.556C69.356 137.172 70.108 136.98 70.932 136.98C71.756 136.98 72.508 137.172 73.188 137.556C73.868 137.94 74.4 138.464 74.784 139.128C75.176 139.784 75.372 140.508 75.372 141.3C75.372 142.092 75.176 142.82 74.784 143.484C74.4 144.14 73.868 144.66 73.188 145.044C72.508 145.428 71.756 145.62 70.932 145.62ZM70.932 144.42C71.5 144.42 72.024 144.284 72.504 144.012C72.984 143.732 73.36 143.352 73.632 142.872C73.912 142.392 74.052 141.868 74.052 141.3C74.052 140.732 73.912 140.208 73.632 139.728C73.36 139.248 72.984 138.872 72.504 138.6C72.024 138.32 71.5 138.18 70.932 138.18C70.364 138.18 69.84 138.32 69.36 138.6C68.88 138.872 68.5 139.248 68.22 139.728C67.948 140.208 67.812 140.732 67.812 141.3C67.812 141.868 67.948 142.392 68.22 142.872C68.5 143.352 68.88 143.732 69.36 144.012C69.84 144.284 70.364 144.42 70.932 144.42ZM77.3273 145.5V137.1H82.8473V138.3H78.6473V140.34H80.8073C81.3193 140.34 81.7793 140.456 82.1873 140.688C82.6033 140.912 82.9273 141.224 83.1593 141.624C83.3913 142.016 83.5073 142.448 83.5073 142.92C83.5073 143.392 83.3913 143.828 83.1593 144.228C82.9273 144.62 82.6033 144.932 82.1873 145.164C81.7793 145.388 81.3193 145.5 80.8073 145.5H77.3273ZM80.8073 144.3C81.1993 144.3 81.5273 144.168 81.7913 143.904C82.0553 143.64 82.1873 143.312 82.1873 142.92C82.1873 142.528 82.0553 142.2 81.7913 141.936C81.5273 141.672 81.1993 141.54 80.8073 141.54H78.6473V144.3H80.8073ZM85.8214 145.5H84.2734L87.2734 141.132L84.5134 137.1H86.0854L88.1134 140.136H88.1374L90.1654 137.1H91.7134L88.9534 141.096L91.9534 145.5H90.3814L88.1134 142.104H88.0894L85.8214 145.5ZM93.5586 145.5V137.1H96.9186C97.4066 137.1 97.8426 137.2 98.2266 137.4C98.6106 137.6 98.9066 137.872 99.1146 138.216C99.3306 138.552 99.4386 138.92 99.4386 139.32C99.4386 139.712 99.3386 140.056 99.1386 140.352C98.9386 140.64 98.6906 140.852 98.3946 140.988C98.7626 141.124 99.0986 141.376 99.4026 141.744C99.7066 142.104 99.8586 142.536 99.8586 143.04C99.8586 143.48 99.7386 143.888 99.4986 144.264C99.2666 144.64 98.9386 144.94 98.5146 145.164C98.0986 145.388 97.6266 145.5 97.0986 145.5H93.5586ZM96.9186 140.52C97.2786 140.52 97.5666 140.416 97.7826 140.208C98.0066 139.992 98.1186 139.716 98.1186 139.38C98.1186 139.044 98.0066 138.772 97.7826 138.564C97.5666 138.348 97.2786 138.24 96.9186 138.24H94.8786V140.52H96.9186ZM97.0986 144.36C97.5146 144.36 97.8586 144.228 98.1306 143.964C98.4026 143.7 98.5386 143.372 98.5386 142.98C98.5386 142.588 98.4026 142.26 98.1306 141.996C97.8586 141.732 97.5146 141.6 97.0986 141.6H94.8786V144.36H97.0986ZM101.916 145.5H100.56L103.92 137.1H105.36L108.72 145.5H107.316L106.476 143.34H102.756L101.916 145.5ZM104.604 138.624L103.236 142.14H105.996L104.628 138.624H104.604ZM112.482 145.5H111.162V138.3H108.642V137.1H115.002V138.3H112.482V145.5ZM121.928 145.5H120.608V138.3H118.088V137.1H124.448V138.3H121.928V145.5ZM125.731 145.5H124.375L127.735 137.1H129.175L132.535 145.5H131.131L130.291 143.34H126.571L125.731 145.5ZM128.419 138.624L127.051 142.14H129.811L128.443 138.624H128.419ZM135.214 137.1H140.794V145.5H139.474V138.3H136.486L136.45 139.62C136.41 141.204 136.282 142.436 136.066 143.316C135.85 144.188 135.554 144.792 135.178 145.128C134.81 145.456 134.342 145.62 133.774 145.62C133.614 145.62 133.462 145.6 133.318 145.56C133.182 145.528 133.074 145.488 132.994 145.44V144.24C133.21 144.32 133.43 144.36 133.654 144.36C133.942 144.36 134.19 144.236 134.398 143.988C134.606 143.74 134.774 143.272 134.902 142.584C135.038 141.888 135.122 140.9 135.154 139.62L135.214 137.1ZM144.49 145.5H143.29V137.1H144.61V143.34H144.646L149.23 137.1H150.43V145.5H149.11V139.26H149.086L144.49 145.5ZM154.129 145.5H152.929V137.1H154.249V143.34H154.285L158.869 137.1H160.069V145.5H158.749V139.26H158.725L154.129 145.5Z" fill="white"/>
<line x1="65" y1="163.5" x2="162" y2="163.5" stroke="#CC122D" stroke-width="4" stroke-dasharray="6 6"/>
<circle cx="61" cy="163.5" r="5" fill="#CC122D"/>
<circle cx="166" cy="163.5" r="5" fill="#CC122D"/>
<rect x="58.5" y="185.5" width="110" height="30" rx="15" fill="#0D1116" fill-opacity="0.5"/>
<path d="M72.1566 204.62C71.3326 204.62 70.5806 204.428 69.9006 204.044C69.2206 203.66 68.6846 203.14 68.2926 202.484C67.9086 201.82 67.7166 201.092 67.7166 200.3C67.7166 199.508 67.9086 198.784 68.2926 198.128C68.6846 197.464 69.2206 196.94 69.9006 196.556C70.5806 196.172 71.3326 195.98 72.1566 195.98C72.9806 195.98 73.7326 196.172 74.4126 196.556C75.0926 196.94 75.6246 197.464 76.0086 198.128C76.4006 198.784 76.5966 199.508 76.5966 200.3C76.5966 201.092 76.4006 201.82 76.0086 202.484C75.6246 203.14 75.0926 203.66 74.4126 204.044C73.7326 204.428 72.9806 204.62 72.1566 204.62ZM72.1566 203.42C72.7246 203.42 73.2486 203.284 73.7286 203.012C74.2086 202.732 74.5846 202.352 74.8566 201.872C75.1366 201.392 75.2766 200.868 75.2766 200.3C75.2766 199.732 75.1366 199.208 74.8566 198.728C74.5846 198.248 74.2086 197.872 73.7286 197.6C73.2486 197.32 72.7246 197.18 72.1566 197.18C71.5886 197.18 71.0646 197.32 70.5846 197.6C70.1046 197.872 69.7246 198.248 69.4446 198.728C69.1726 199.208 69.0366 199.732 69.0366 200.3C69.0366 200.868 69.1726 201.392 69.4446 201.872C69.7246 202.352 70.1046 202.732 70.5846 203.012C71.0646 203.284 71.5886 203.42 72.1566 203.42ZM78.552 204.5V196.1H84.072V197.3H79.872V199.34H82.032C82.544 199.34 83.004 199.456 83.412 199.688C83.828 199.912 84.152 200.224 84.384 200.624C84.616 201.016 84.732 201.448 84.732 201.92C84.732 202.392 84.616 202.828 84.384 203.228C84.152 203.62 83.828 203.932 83.412 204.164C83.004 204.388 82.544 204.5 82.032 204.5H78.552ZM82.032 203.3C82.424 203.3 82.752 203.168 83.016 202.904C83.28 202.64 83.412 202.312 83.412 201.92C83.412 201.528 83.28 201.2 83.016 200.936C82.752 200.672 82.424 200.54 82.032 200.54H79.872V203.3H82.032ZM87.046 204.5H85.498L88.498 200.132L85.738 196.1H87.31L89.338 199.136H89.362L91.39 196.1H92.938L90.178 200.096L93.178 204.5H91.606L89.338 201.104H89.314L87.046 204.5ZM94.7832 204.5V196.1H98.1432C98.6312 196.1 99.0672 196.2 99.4512 196.4C99.8352 196.6 100.131 196.872 100.339 197.216C100.555 197.552 100.663 197.92 100.663 198.32C100.663 198.712 100.563 199.056 100.363 199.352C100.163 199.64 99.9152 199.852 99.6192 199.988C99.9872 200.124 100.323 200.376 100.627 200.744C100.931 201.104 101.083 201.536 101.083 202.04C101.083 202.48 100.963 202.888 100.723 203.264C100.491 203.64 100.163 203.94 99.7392 204.164C99.3232 204.388 98.8512 204.5 98.3232 204.5H94.7832ZM98.1432 199.52C98.5032 199.52 98.7912 199.416 99.0072 199.208C99.2312 198.992 99.3432 198.716 99.3432 198.38C99.3432 198.044 99.2312 197.772 99.0072 197.564C98.7912 197.348 98.5032 197.24 98.1432 197.24H96.1032V199.52H98.1432ZM98.3232 203.36C98.7392 203.36 99.0832 203.228 99.3552 202.964C99.6272 202.7 99.7632 202.372 99.7632 201.98C99.7632 201.588 99.6272 201.26 99.3552 200.996C99.0832 200.732 98.7392 200.6 98.3232 200.6H96.1032V203.36H98.3232ZM103.141 204.5H101.785L105.145 196.1H106.585L109.945 204.5H108.541L107.701 202.34H103.981L103.141 204.5ZM105.829 197.624L104.461 201.14H107.221L105.853 197.624H105.829ZM113.707 204.5H112.387V197.3H109.867V196.1H116.227V197.3H113.707V204.5ZM120.273 204.5V196.1H125.793V197.3H121.593V199.34H123.753C124.265 199.34 124.725 199.456 125.133 199.688C125.549 199.912 125.873 200.224 126.105 200.624C126.337 201.016 126.453 201.448 126.453 201.92C126.453 202.392 126.337 202.828 126.105 203.228C125.873 203.62 125.549 203.932 125.133 204.164C124.725 204.388 124.265 204.5 123.753 204.5H120.273ZM123.753 203.3C124.145 203.3 124.473 203.168 124.737 202.904C125.001 202.64 125.133 202.312 125.133 201.92C125.133 201.528 125.001 201.2 124.737 200.936C124.473 200.672 124.145 200.54 123.753 200.54H121.593V203.3H123.753ZM134.414 204.5H128.354V196.1H134.294V197.3H129.674V199.544H133.334V200.744H129.674V203.3H134.414V204.5ZM142.62 203.3H143.82V206.3H142.5V204.5H136.56V206.3H135.24V203.3H135.72C135.944 203.108 136.16 202.796 136.368 202.364C136.584 201.924 136.764 201.384 136.908 200.744C137.06 200.096 137.144 199.388 137.16 198.62L137.22 196.1H142.62V203.3ZM141.3 203.3V197.3H138.492L138.456 198.62C138.432 199.396 138.352 200.104 138.216 200.744C138.08 201.384 137.916 201.924 137.724 202.364C137.532 202.796 137.336 203.108 137.136 203.3H141.3ZM151.535 204.5H145.475V196.1H151.415V197.3H146.795V199.544H150.455V200.744H146.795V203.3H151.535V204.5ZM153.439 204.5V196.1H156.799C157.327 196.1 157.807 196.22 158.239 196.46C158.671 196.7 159.007 197.028 159.247 197.444C159.495 197.852 159.619 198.304 159.619 198.8C159.619 199.296 159.495 199.752 159.247 200.168C159.007 200.576 158.671 200.9 158.239 201.14C157.807 201.38 157.327 201.5 156.799 201.5H154.759V204.5H153.439ZM156.799 200.3C157.223 200.3 157.579 200.156 157.867 199.868C158.155 199.572 158.299 199.216 158.299 198.8C158.299 198.376 158.155 198.02 157.867 197.732C157.579 197.444 157.223 197.3 156.799 197.3H154.759V200.3H156.799Z" fill="white"/>
<line x1="56" y1="222.5" x2="171" y2="222.5" stroke="#CC122D" stroke-width="4" stroke-dasharray="6 6"/>
<circle cx="175" cy="222.5" r="5" fill="#CC122D"/>
<circle cx="52" cy="222.5" r="5" fill="#CC122D"/>
<rect x="58.5" y="70.5" width="110" height="30" rx="15" fill="#0D1116" fill-opacity="0.5"/>
<path d="M72.1625 89.62C71.3385 89.62 70.5865 89.428 69.9065 89.044C69.2265 88.66 68.6905 88.14 68.2985 87.484C67.9145 86.82 67.7225 86.092 67.7225 85.3C67.7225 84.508 67.9145 83.784 68.2985 83.128C68.6905 82.464 69.2265 81.94 69.9065 81.556C70.5865 81.172 71.3385 80.98 72.1625 80.98C72.9865 80.98 73.7385 81.172 74.4185 81.556C75.0985 81.94 75.6305 82.464 76.0145 83.128C76.4065 83.784 76.6025 84.508 76.6025 85.3C76.6025 86.092 76.4065 86.82 76.0145 87.484C75.6305 88.14 75.0985 88.66 74.4185 89.044C73.7385 89.428 72.9865 89.62 72.1625 89.62ZM72.1625 88.42C72.7305 88.42 73.2545 88.284 73.7345 88.012C74.2145 87.732 74.5905 87.352 74.8625 86.872C75.1425 86.392 75.2825 85.868 75.2825 85.3C75.2825 84.732 75.1425 84.208 74.8625 83.728C74.5905 83.248 74.2145 82.872 73.7345 82.6C73.2545 82.32 72.7305 82.18 72.1625 82.18C71.5945 82.18 71.0705 82.32 70.5905 82.6C70.1105 82.872 69.7305 83.248 69.4505 83.728C69.1785 84.208 69.0425 84.732 69.0425 85.3C69.0425 85.868 69.1785 86.392 69.4505 86.872C69.7305 87.352 70.1105 87.732 70.5905 88.012C71.0705 88.284 71.5945 88.42 72.1625 88.42ZM78.5578 89.5V81.1H84.0778V82.3H79.8778V84.34H82.0378C82.5498 84.34 83.0098 84.456 83.4178 84.688C83.8338 84.912 84.1578 85.224 84.3898 85.624C84.6218 86.016 84.7378 86.448 84.7378 86.92C84.7378 87.392 84.6218 87.828 84.3898 88.228C84.1578 88.62 83.8338 88.932 83.4178 89.164C83.0098 89.388 82.5498 89.5 82.0378 89.5H78.5578ZM82.0378 88.3C82.4298 88.3 82.7578 88.168 83.0218 87.904C83.2858 87.64 83.4178 87.312 83.4178 86.92C83.4178 86.528 83.2858 86.2 83.0218 85.936C82.7578 85.672 82.4298 85.54 82.0378 85.54H79.8778V88.3H82.0378ZM87.0519 89.5H85.5039L88.5039 85.132L85.7439 81.1H87.3159L89.3439 84.136H89.3679L91.3959 81.1H92.9439L90.1839 85.096L93.1839 89.5H91.6119L89.3439 86.104H89.3199L87.0519 89.5ZM94.7891 89.5V81.1H98.1491C98.6371 81.1 99.0731 81.2 99.4571 81.4C99.8411 81.6 100.137 81.872 100.345 82.216C100.561 82.552 100.669 82.92 100.669 83.32C100.669 83.712 100.569 84.056 100.369 84.352C100.169 84.64 99.9211 84.852 99.6251 84.988C99.9931 85.124 100.329 85.376 100.633 85.744C100.937 86.104 101.089 86.536 101.089 87.04C101.089 87.48 100.969 87.888 100.729 88.264C100.497 88.64 100.169 88.94 99.7451 89.164C99.3291 89.388 98.8571 89.5 98.3291 89.5H94.7891ZM98.1491 84.52C98.5091 84.52 98.7971 84.416 99.0131 84.208C99.2371 83.992 99.3491 83.716 99.3491 83.38C99.3491 83.044 99.2371 82.772 99.0131 82.564C98.7971 82.348 98.5091 82.24 98.1491 82.24H96.1091V84.52H98.1491ZM98.3291 88.36C98.7451 88.36 99.0891 88.228 99.3611 87.964C99.6331 87.7 99.7691 87.372 99.7691 86.98C99.7691 86.588 99.6331 86.26 99.3611 85.996C99.0891 85.732 98.7451 85.6 98.3291 85.6H96.1091V88.36H98.3291ZM103.147 89.5H101.791L105.151 81.1H106.591L109.951 89.5H108.547L107.707 87.34H103.987L103.147 89.5ZM105.835 82.624L104.467 86.14H107.227L105.859 82.624H105.835ZM113.713 89.5H112.393V82.3H109.873V81.1H116.233V82.3H113.713V89.5ZM121.599 89.5H120.279V81.1H125.679V82.3H121.599V89.5ZM127.094 89.5V81.1H130.454C130.982 81.1 131.462 81.22 131.894 81.46C132.326 81.7 132.662 82.028 132.902 82.444C133.15 82.852 133.274 83.304 133.274 83.8C133.274 84.296 133.15 84.752 132.902 85.168C132.662 85.576 132.326 85.9 131.894 86.14C131.462 86.38 130.982 86.5 130.454 86.5H128.414V89.5H127.094ZM130.454 85.3C130.878 85.3 131.234 85.156 131.522 84.868C131.81 84.572 131.954 84.216 131.954 83.8C131.954 83.376 131.81 83.02 131.522 82.732C131.234 82.444 130.878 82.3 130.454 82.3H128.414V85.3H130.454ZM140.182 81.1H141.538L138.598 87.64C138.302 88.288 137.946 88.776 137.53 89.104C137.114 89.432 136.618 89.596 136.042 89.596C135.714 89.596 135.426 89.544 135.178 89.44V88.288C135.394 88.352 135.626 88.384 135.874 88.384C136.25 88.384 136.554 88.292 136.786 88.108C137.018 87.924 137.222 87.648 137.398 87.28L137.446 87.196L134.098 81.1H135.562L138.094 85.792H138.118L140.182 81.1ZM148.843 88.3H150.043V91.3H148.723V89.5H142.783V91.3H141.463V88.3H141.943C142.167 88.108 142.383 87.796 142.591 87.364C142.807 86.924 142.987 86.384 143.131 85.744C143.283 85.096 143.367 84.388 143.383 83.62L143.443 81.1H148.843V88.3ZM147.523 88.3V82.3H144.715L144.679 83.62C144.655 84.396 144.575 85.104 144.439 85.744C144.303 86.384 144.139 86.924 143.947 87.364C143.755 87.796 143.559 88.108 143.359 88.3H147.523ZM152.898 89.5H151.698V81.1H153.018V87.34H153.054L157.638 81.1H158.838V89.5H157.518V83.26H157.494L152.898 89.5Z" fill="white"/>
<line x1="56" y1="107.5" x2="171" y2="107.5" stroke="#CC122D" stroke-width="4" stroke-dasharray="6 6"/>
<circle cx="52" cy="107.5" r="5" fill="#CC122D"/>
<circle cx="175" cy="107.5" r="5" fill="#CC122D"/>
</g>
<defs>
<clipPath id="clip0_8357_246059">
<rect width="229" height="227" fill="white" transform="translate(0 0.5)"/>
</clipPath>
</defs>
</svg>
