<svg width="81" height="80" viewBox="0 0 81 80" fill="none" xmlns="http://www.w3.org/2000/svg">
<path d="M30.5 35H55.5" stroke="white" stroke-width="7" stroke-linecap="round" stroke-linejoin="round"/>
<path d="M30.5 45H55.5" stroke="white" stroke-width="7" stroke-linecap="round" stroke-linejoin="round"/>
<path d="M10.5 62.5C11.8261 62.5 13.0979 61.9732 14.0355 61.0355C14.9732 60.0979 15.5 58.8261 15.5 57.5V20C15.5 19.337 15.7634 18.7011 16.2322 18.2322C16.7011 17.7634 17.337 17.5 18 17.5H68C68.663 17.5 69.2989 17.7634 69.7678 18.2322C70.2366 18.7011 70.5 19.337 70.5 20V57.5C70.5 58.8261 69.9732 60.0979 69.0355 61.0355C68.0979 61.9732 66.8261 62.5 65.5 62.5H10.5Z" stroke="#CC122D" stroke-width="7" stroke-linecap="round" stroke-linejoin="round"/>
<path d="M10.5 62.5C9.17392 62.5 7.90215 61.9732 6.96447 61.0355C6.02678 60.0979 5.5 58.8261 5.5 57.5V27.5" stroke="#CC122D" stroke-width="7" stroke-linecap="round" stroke-linejoin="round"/>
</svg>
