<svg width="282" height="79" viewBox="0 0 282 79" fill="none" xmlns="http://www.w3.org/2000/svg">
<path d="M139.673 22.7043H135.557V24.2976H138.478V25.4925H135.557V27.8824H133.831V22.7043L133.167 21.6421H139.673V22.7043Z" fill="white"/>
<path d="M147.772 24.6963C147.772 26.4224 146.311 28.0156 144.054 28.0156C141.797 28.0156 140.336 26.5551 140.336 24.6963C140.336 22.9702 141.797 21.377 144.054 21.377C146.179 21.377 147.772 22.9702 147.772 24.6963ZM146.046 24.6963C146.046 23.5013 145.116 22.5719 144.054 22.5719C142.859 22.5719 142.063 23.5013 142.063 24.6963C142.063 25.8913 142.992 26.8207 144.054 26.8207C145.116 26.8207 146.046 25.8913 146.046 24.6963Z" fill="white"/>
<path d="M156.402 24.6963C156.402 26.4224 154.941 28.0156 152.684 28.0156C150.427 28.0156 148.966 26.5551 148.966 24.6963C148.966 22.9702 150.427 21.377 152.684 21.377C154.941 21.377 156.402 22.9702 156.402 24.6963ZM154.676 24.6963C154.676 23.5013 153.746 22.5719 152.684 22.5719C151.489 22.5719 150.692 23.5013 150.692 24.6963C150.692 25.8913 151.622 26.8207 152.684 26.8207C153.879 26.8207 154.676 25.8913 154.676 24.6963Z" fill="white"/>
<path d="M163.172 21.6421V22.7043H160.915V27.8824H159.189V22.7043H157.33L156.667 21.6421H163.172Z" fill="white"/>
<path d="M169.545 24.4308C169.545 24.4308 170.873 24.8291 170.873 26.0241C170.873 26.9535 170.076 27.7501 168.217 27.7501H164.898V22.7047L164.234 21.5098H167.952C169.678 21.5098 170.342 22.3064 170.342 23.103C170.474 24.0325 169.545 24.4308 169.545 24.4308ZM166.491 22.5719V24.0325H167.819C168.483 24.0325 168.748 23.7669 168.748 23.3686C168.748 22.9703 168.483 22.7047 167.819 22.7047H166.491V22.5719ZM166.491 24.9619V26.6879H167.952C168.748 26.6879 169.147 26.2896 169.147 25.7585C169.147 25.2274 168.748 24.8291 167.952 24.8291H166.491V24.9619Z" fill="white"/>
<path d="M171.537 27.7501L173.794 22.5719L173.263 21.5098H176.051L178.839 27.7501H176.98L176.449 26.6879H173.395L172.864 27.7501H171.537ZM173.927 25.493H176.184L175.122 22.9703L173.927 25.493Z" fill="white"/>
<path d="M181.893 21.6421V26.6875H185.345V27.8824H180.167V22.7043L179.503 21.6421H181.893Z" fill="white"/>
<path d="M188.398 21.6421V26.6875H191.85V27.8824H186.672V22.7043L186.008 21.6421H188.398Z" fill="white"/>
<path d="M197.294 24.6952C197.294 25.8902 198.223 26.8196 199.418 26.8196C200.879 26.8196 201.543 25.6247 201.543 25.6247L202.605 26.1558C202.605 26.1558 201.543 27.8818 199.418 27.8818C197.161 27.8818 195.701 26.4213 195.701 24.5625C195.701 22.8364 197.161 21.2431 199.418 21.2431C200.481 21.2431 201.277 21.6414 201.277 21.6414L202.074 21.1104V22.9692L201.277 23.3675C201.277 23.3675 200.613 22.3053 199.418 22.3053C198.223 22.5709 197.294 23.5003 197.294 24.6952Z" fill="white"/>
<path d="M205.659 21.6421V26.6875H209.243V27.8824H204.065V22.7043L203.401 21.6421H205.659Z" fill="white"/>
<path d="M216.412 21.6421V25.0942C216.412 26.8203 215.217 28.0152 213.225 28.0152C211.367 28.0152 210.039 26.8203 210.039 25.0942V22.8371L209.375 21.6421H211.632V25.0942C211.632 26.2892 212.296 26.953 213.225 26.953C214.155 26.953 214.819 26.2892 214.819 25.0942V21.6421H216.412Z" fill="white"/>
<path d="M222.786 24.4308C222.786 24.4308 224.114 24.8291 224.114 26.0241C224.114 26.9535 223.317 27.7501 221.458 27.7501H218.139V22.7047L217.475 21.5098H221.193C222.919 21.5098 223.583 22.3064 223.583 23.103C223.715 24.0325 222.786 24.4308 222.786 24.4308ZM219.865 22.5719V24.0325H221.193C221.857 24.0325 222.122 23.7669 222.122 23.3686C222.122 22.9703 221.857 22.7047 221.193 22.7047H219.865V22.5719ZM219.865 24.9619V26.6879H221.325C222.122 26.6879 222.52 26.2896 222.52 25.7585C222.52 25.2274 222.122 24.8291 221.325 24.8291H219.865V24.9619Z" fill="white"/>
<path d="M145.117 65.0591V74.486H142.594V68.2457L139.009 74.486L135.557 68.2457V74.486H133.831V66.7851L132.901 65.0591H136.752L139.673 70.1045L142.461 65.0591H145.117Z" fill="#CC122D"/>
<path d="M158.659 69.7061C158.659 72.3616 156.402 74.6187 153.082 74.6187C149.763 74.6187 147.506 72.3616 147.506 69.7061C147.506 67.0506 149.763 64.7935 153.082 64.7935C156.402 64.7935 158.659 67.0506 158.659 69.7061ZM156.136 69.7061C156.136 67.8472 154.808 66.5195 153.082 66.5195C151.356 66.5195 150.029 67.98 150.029 69.7061C150.029 71.5649 151.356 72.8927 153.082 72.8927C154.808 73.0254 156.136 71.5649 156.136 69.7061Z" fill="#CC122D"/>
<path d="M164.766 64.7934C167.023 64.7934 168.351 65.3245 168.351 65.3245L169.679 64.5278V67.1833L168.484 67.8472C168.484 67.8472 167.156 66.5194 164.899 66.5194C163.306 66.5194 162.774 67.0505 162.774 67.5816C162.774 69.3077 169.811 67.7144 169.811 71.6976C169.811 73.2909 168.351 74.7514 164.899 74.7514C161.181 74.7514 159.721 72.0959 159.721 72.0959L161.314 71.1665C161.314 71.1665 162.509 73.0253 164.899 73.0253C166.758 73.0253 167.422 72.3615 167.422 71.8304C167.422 70.1043 160.385 71.6976 160.385 67.7144C160.385 66.2539 161.845 64.7934 164.766 64.7934Z" fill="#CC122D"/>
<path d="M174.192 69.7065C174.192 71.5654 175.653 72.8931 177.379 72.8931C179.636 72.8931 180.698 71.167 180.698 71.167L182.291 72.0965C182.291 72.0965 180.698 74.7519 177.379 74.7519C174.059 74.7519 171.802 72.4948 171.802 69.8393C171.802 67.1838 174.059 64.9267 177.379 64.9267C178.972 64.9267 180.167 65.4578 180.167 65.4578L181.495 64.6611V67.5821L180.3 68.246C180.3 68.246 179.37 66.6527 177.511 66.6527C175.52 66.52 174.192 67.9805 174.192 69.7065Z" fill="#CC122D"/>
<path d="M194.506 69.7061C194.506 72.3616 192.249 74.6187 188.93 74.6187C185.61 74.6187 183.353 72.3616 183.353 69.7061C183.353 67.0506 185.61 64.7935 188.93 64.7935C192.249 64.7935 194.506 67.0506 194.506 69.7061ZM191.983 69.7061C191.983 67.8472 190.656 66.5195 188.93 66.5195C187.203 66.5195 185.876 67.98 185.876 69.7061C185.876 71.5649 187.203 72.8927 188.93 72.8927C190.656 73.0254 191.983 71.5649 191.983 69.7061Z" fill="#CC122D"/>
<path d="M207.65 65.0591H209.509L206.057 74.486H203.933L202.472 70.5028L201.011 74.486H198.887L195.302 65.0591H198.356L200.48 70.9011L202.605 65.0591H203.401L205.526 70.9011L207.65 65.0591Z" fill="#CC122D"/>
<path d="M141.797 36.6449C146.311 36.6449 148.834 37.7071 148.834 37.7071L151.357 36.2466V41.4248L149.1 42.7525C149.1 42.7525 146.444 39.9642 142.063 39.9642C139.009 39.9642 137.946 41.0264 137.946 41.9558C137.946 45.408 152.021 42.2214 152.021 50.1878C152.021 53.3744 149.099 56.2954 142.328 56.2954C135.025 56.2954 131.972 51.1172 131.972 51.1172L135.025 49.3912C135.025 49.3912 137.283 52.9761 142.195 52.9761C145.913 52.9761 147.108 51.7811 147.108 50.7189C147.108 47.2668 133.034 50.4534 133.034 42.4869C132.901 39.5659 135.955 36.6449 141.797 36.6449Z" fill="#CC122D"/>
<path d="M165.563 37.1768C171.272 37.1768 174.193 40.0978 174.193 43.6827C174.193 47.2676 171.272 50.1886 165.563 50.1886H161.978V55.7651H157.065V40.6289L155.074 37.1768H165.563ZM161.978 47.1348H165.032C167.687 47.1348 169.281 45.5415 169.281 43.6827C169.281 41.8238 167.687 40.2306 165.032 40.2306H161.978V47.1348Z" fill="#CC122D"/>
<path d="M174.856 55.7651L181.76 40.2306L180.034 37.1768H188.532L196.764 55.7651H191.32L189.859 52.4457H180.3L178.839 55.7651H174.856ZM181.76 48.9936H188.399L185.08 41.4255L181.76 48.9936Z" fill="#CC122D"/>
<path d="M208.978 37.1768C214.555 37.1768 217.343 39.965 217.343 43.4171C217.343 47.5331 213.36 48.8608 213.36 48.8608L218.804 55.7651H212.961L208.447 49.6575H205.128V55.7651H200.215V40.6289L198.224 37.1768H208.978ZM205.128 46.6037H208.447C210.97 46.6037 212.43 45.1432 212.43 43.4171C212.43 41.6911 210.97 40.2306 208.447 40.2306H205.128V46.6037Z" fill="#CC122D"/>
<path d="M238.055 37.1768V40.6289H231.151V55.7651H226.238V40.6289H220.794L218.803 37.1768H238.055Z" fill="#CC122D"/>
<path d="M237.789 55.7651L244.693 40.2306L242.967 37.1768H251.464L259.696 55.7651H254.385L252.925 52.4457H243.365L241.905 55.7651H237.789ZM244.693 48.9936H251.332L248.012 41.4255L244.693 48.9936Z" fill="#CC122D"/>
<path d="M268.192 44.3465H270.184L276.69 37.1768H281.47L273.902 45.4087L282.001 55.7651H276.026L270.051 47.7987H268.192V55.7651H263.147V40.6289L261.155 37.1768H268.192V44.3465Z" fill="#CC122D"/>
<path d="M54.435 4.24876L50.1862 3.85044L48.4602 0L46.6013 3.85044L42.4854 4.24876L45.5391 7.16978L44.7424 11.2858L48.4602 9.16139L52.045 11.2858L51.2484 7.16978L54.435 4.24876Z" fill="#C4B684"/>
<path d="M86.831 4.24876L82.5822 3.85044L80.8562 0L79.1301 3.85044L74.8813 4.24876L78.0679 7.16978L77.1385 11.2858L80.8562 9.16139L84.5738 11.2858L83.6445 7.16978L86.831 4.24876Z" fill="#C4B684"/>
<path d="M70.6332 4.24876L66.3845 3.85044L64.6584 0L62.9324 3.85044L58.6836 4.24876L61.8702 7.16978L60.9408 11.2858L64.6584 9.16139L68.3761 11.2858L67.4467 7.16978L70.6332 4.24876Z" fill="#C4B684"/>
<path d="M38.1049 4.24876L33.8562 3.85044L32.1301 0L30.404 3.85044L26.1553 4.24876L29.3419 7.16978L28.5453 11.2858L32.1301 9.16139L35.8478 11.2858L34.9184 7.16978L38.1049 4.24876Z" fill="#C4B684"/>
<path d="M56.5593 13.8081L112.986 46.4704L56.5593 79L0 46.4704L56.5593 13.8081Z" fill="#CC122D"/>
<path d="M70.8982 54.7026C67.4462 59.3497 61.7372 61.7396 56.5592 61.7396C47.6638 61.7396 38.7683 56.4287 38.7683 46.0723C38.7683 38.3715 45.5395 31.2017 56.5592 31.2017C60.144 31.2017 63.596 32.2639 65.4547 33.1933L68.5084 31.4672V38.3715L66.1186 39.6992C63.9943 36.6454 60.5423 34.7866 56.5592 34.7866C50.0536 34.7866 44.7428 40.0975 44.7428 46.6034C44.7428 53.1093 50.0536 58.4203 56.5592 58.4203C60.8078 58.4203 64.9237 56.5615 67.7118 53.1093L70.8982 54.7026ZM105.949 46.4707L56.5592 75.017L7.16943 46.4707L56.5592 17.9243L105.949 46.4707ZM56.5592 70.901L98.9124 46.4707L84.8389 38.3715L63.7288 50.5866V53.1093C61.87 55.2337 59.0818 56.2959 56.2937 56.1631L57.7542 55.1009L55.0988 52.1799L51.2485 52.9766L51.9124 54.9682C48.8587 53.2421 46.9999 49.9228 46.9999 46.4707L48.3276 48.0639L50.983 45.1429L49.7881 41.4253L48.062 42.2219C49.3897 39.6992 51.6469 37.9731 54.435 37.3093L56.5592 38.5042L58.6835 37.3093C61.7372 37.9731 64.127 40.0975 65.3219 42.8858L70.6327 39.832V30.405L56.5592 22.0403L14.2061 46.4707L28.2796 54.5699L36.9096 49.5245C37.8389 54.1715 40.6271 58.2875 45.2739 61.0758L42.4858 62.6691L56.5592 70.901ZM57.7542 41.6908L54.8333 44.8774L56.9575 48.595L61.2061 47.6656L61.6044 43.4169L57.7542 41.6908Z" fill="white"/>
</svg>
